<?xml version="1.0" encoding="UTF-8"?> <svg xmlns="http://www.w3.org/2000/svg" width="243" height="242" viewBox="0 0 243 242" fill="none"><mask id="mask0_538_170" style="mask-type:luminance" maskUnits="userSpaceOnUse" x="1" y="0" width="242" height="242"><path d="M242.301 0.699219H1.30078V241.699H242.301V0.699219Z" fill="white"></path></mask><g mask="url(#mask0_538_170)"><path d="M18.6432 50.877C19.6419 50.8825 20.646 50.888 21.6447 50.8935C21.6447 57.5713 21.6501 64.2492 21.6447 70.927C20.8874 70.9215 20.1302 70.8941 19.3785 70.8392C19.1535 70.3015 18.956 69.7527 18.7914 69.1931C17.5677 70.2301 16.174 71.3001 14.4675 71.1739C11.691 71.3769 9.35348 69.0832 8.94194 66.4384C8.52492 63.5028 8.49749 60.0405 10.6814 57.7414C12.964 55.563 16.7995 56.0733 18.8572 58.3231C18.517 55.8539 18.6706 53.3572 18.6432 50.877ZM13.6664 59.1571C12.1135 60.0899 11.8611 62.0927 11.7788 63.7389C11.8282 65.2039 11.9709 66.8884 13.0847 67.9748C14.1438 68.9351 15.7515 68.8529 17.008 68.359C18.2811 67.7609 18.6871 66.23 18.7475 64.935C18.7968 63.3109 18.8846 61.5605 18.0451 60.1009C17.0519 58.8059 15.104 58.4548 13.6664 59.1571Z" fill="#2B2B2B"></path><path d="M18.6521 49.377C18.453 49.3757 18.2556 49.4141 18.0715 49.4898C17.8874 49.5656 17.7201 49.6773 17.5796 49.8184C17.4391 49.9595 17.328 50.1271 17.253 50.3115C17.1779 50.496 17.1403 50.6935 17.1424 50.8926C17.1584 52.3447 17.2458 53.9447 17.281 55.4981C14.7762 54.4368 11.7712 54.6284 9.64627 56.6563C9.62826 56.6734 9.61067 56.691 9.59354 56.709C6.88744 59.5579 7.01799 63.5593 7.45682 66.6485C7.45742 66.6556 7.45807 66.6628 7.45877 66.67C7.97856 70.0104 10.8774 72.8736 14.4939 72.6582C15.9274 72.7259 17.0601 72.2035 18.0603 71.5547C18.1802 71.7759 18.3537 71.9633 18.565 72.0998C18.7763 72.2363 19.0185 72.3175 19.2693 72.336C20.0578 72.3936 20.8464 72.4221 21.6326 72.4278C21.8306 72.4293 22.0269 72.3916 22.2102 72.3169C22.3935 72.2422 22.5603 72.132 22.7008 71.9925C22.8413 71.8531 22.9529 71.6872 23.029 71.5045C23.1051 71.3217 23.1443 71.1257 23.1443 70.9278C23.1497 64.2483 23.1443 57.5696 23.1443 50.8926C23.1443 50.4961 22.9873 50.1158 22.7077 49.8347C22.4281 49.5537 22.0486 49.3947 21.6521 49.3926C20.6534 49.3871 19.6508 49.3825 18.6521 49.377ZM12.115 58.6016C11.9266 58.7905 11.679 58.9407 11.5291 59.1504C11.6119 59.0438 11.6532 58.908 11.7459 58.8086C11.8513 58.7102 11.9989 58.6838 12.115 58.6016ZM20.1443 59.0918C20.1446 60.0612 20.1442 61.0307 20.1443 62C20.0485 61.2418 19.8308 60.467 19.451 59.7012C19.7404 59.576 19.983 59.3628 20.1443 59.0918ZM11.4978 59.1993C11.1599 59.6838 10.9098 60.2065 10.7439 60.7168C10.4568 61.6002 10.4043 62.4329 10.3533 63.2071C10.4099 61.6836 10.6854 60.2726 11.4978 59.1993ZM15.6951 60.3731C16.1362 60.4607 16.5225 60.6816 16.7771 60.9707C17.2782 61.9353 17.2957 63.2923 17.2478 64.875C17.2227 65.3906 17.1197 65.9319 16.9549 66.3125C16.7956 66.6804 16.6253 66.8577 16.3943 66.9746C15.5204 67.2989 14.5829 67.2712 14.1189 66.8731C13.5402 66.2877 13.3367 65.1178 13.2849 63.7598C13.3252 63.0017 13.4071 62.2301 13.5974 61.6446C13.7841 61.0703 14.0317 60.7366 14.4021 60.4961C14.7823 60.3331 15.2491 60.2845 15.6951 60.3731ZM10.3924 64.8125C10.4841 66.1082 10.7812 67.5398 11.8826 68.7715C11.1332 68.1247 10.5842 67.2076 10.4275 66.2129C10.3605 65.7393 10.4265 65.2877 10.3924 64.8125ZM20.1443 65.4766C20.1442 66.5006 20.1448 67.525 20.1443 68.5489C20.004 68.2544 19.7716 68.0138 19.4822 67.8633C19.5481 67.7404 19.6553 67.6273 19.7088 67.5039C20.0092 66.8101 20.0819 66.1311 20.1443 65.4766Z" fill="#2B2B2B"></path><path d="M26.832 51.398C28.8841 50.2951 30.2614 53.7301 28.2367 54.4598C26.2613 55.5353 24.7688 52.1059 26.832 51.398Z" fill="#2B2B2B"></path><path d="M27.5021 49.7003C27.0747 49.7188 26.6466 49.848 26.2482 50.0401C25.3819 50.3789 24.6976 51.1136 24.465 51.9014C24.2225 52.7227 24.3429 53.5188 24.6505 54.2081C24.9582 54.8974 25.4756 55.5246 26.256 55.8917C27.0053 56.2442 28.0056 56.2197 28.8439 55.8057C29.6988 55.456 30.3605 54.7282 30.5958 53.9522C30.8413 53.1426 30.7399 52.3462 30.4415 51.6495C30.1432 50.9528 29.6225 50.3124 28.8302 49.9464C28.4341 49.7634 27.9727 49.6799 27.5021 49.7003ZM27.5724 52.669C27.5522 52.6597 27.6343 52.7157 27.6837 52.8311C27.727 52.9322 27.7207 53.0219 27.7189 53.0518C27.6504 53.0769 27.5838 53.1069 27.5197 53.1417C27.3895 53.2125 27.522 53.1724 27.5314 53.1768C27.5408 53.1813 27.4433 53.1076 27.3888 52.9854C27.3461 52.8897 27.3527 52.8336 27.3517 52.8018C27.4174 52.7783 27.4813 52.7503 27.5431 52.7179C27.7085 52.629 27.5925 52.6783 27.5724 52.669Z" fill="#2B2B2B"></path><path d="M26.0339 56.6289H29.0244C29.0408 61.924 29.0299 67.219 29.0408 72.5141C29.0299 73.9956 28.7171 75.7954 27.2795 76.5636C25.7595 77.4416 23.9488 77.244 22.3027 76.9477C22.3301 76.1356 22.3575 75.329 22.3904 74.5224C23.7403 74.8352 25.8912 75.0162 25.9681 73.1012C26.1327 67.6141 25.979 62.1215 26.0339 56.6289Z" fill="#2B2B2B"></path><path d="M26.0341 55.1289C25.6389 55.1289 25.2598 55.2848 24.9789 55.5628C24.6981 55.8407 24.5382 56.2182 24.5341 56.6133C24.4788 62.1386 24.6317 67.6169 24.4696 73.041C24.4617 73.2387 24.4478 73.1779 24.4774 73.1465C24.507 73.1151 24.4947 73.1483 24.3407 73.1816C24.0326 73.2483 23.2956 73.1918 22.7294 73.0605C22.5145 73.011 22.2914 73.0094 22.0759 73.0559C21.8604 73.1024 21.6578 73.1959 21.4825 73.3296C21.3072 73.4633 21.1636 73.634 21.0617 73.8295C20.9599 74.0251 20.9025 74.2407 20.8934 74.4609C20.8603 75.2743 20.831 76.0842 20.8036 76.8965C20.7914 77.2569 20.9094 77.6097 21.1361 77.8902C21.3628 78.1707 21.683 78.3601 22.038 78.4238C23.752 78.7323 25.962 79.0384 28.0067 77.8691C29.1004 77.2751 29.7683 76.273 30.1102 75.3086C30.4547 74.337 30.5357 73.3672 30.5419 72.5254C30.5419 72.5208 30.5419 72.5163 30.5419 72.5117C30.531 67.2207 30.5427 61.9253 30.5263 56.625C30.5252 56.2279 30.3667 55.8474 30.0855 55.5669C29.8043 55.2865 29.4234 55.1289 29.0263 55.1289H26.0341ZM27.5282 58.2031C27.5385 62.9664 27.5321 67.7331 27.5419 72.5039C27.5405 72.6857 27.4817 72.8336 27.4677 73.0156C27.6124 68.0389 27.5105 63.1074 27.5282 58.2031ZM27.4345 73.2441C27.3932 73.6151 27.3846 74.0157 27.2821 74.3047C27.1451 74.6911 26.9446 74.8668 26.7235 75.041C27.1299 74.5469 27.3898 73.9119 27.4345 73.2441Z" fill="#2B2B2B"></path><path d="M34.424 57.413C36.9536 56.3375 39.9935 55.8546 42.5779 57.0234C44.0869 57.6983 44.674 59.4377 44.674 60.9796C44.7344 64.2828 44.663 67.5916 44.6905 70.8948H42.545C42.3475 70.2803 42.1554 69.6657 41.9634 69.0511C40.2075 70.9826 37.3597 71.7563 34.9124 70.7631C32.1304 69.4846 31.8231 64.9193 34.4625 63.3281C36.6738 61.9782 39.3844 62.3239 41.8481 61.9837C41.6177 60.9686 41.7274 59.6133 40.6629 59.0426C38.8467 58.0934 36.8219 59.092 35.0935 59.745C34.885 58.9932 34.1113 58.2196 34.424 57.413ZM35.7794 66.5326C35.4666 69.0457 38.8192 69.4572 40.3337 68.1787C41.7329 67.2788 41.7 65.4626 41.7494 63.992C39.6862 64.217 36.1909 63.7341 35.7794 66.5326Z" fill="#2B2B2B"></path><path d="M38.3846 54.8718C36.7833 54.9949 35.2273 55.4431 33.8378 56.0339C33.6532 56.1122 33.4862 56.2266 33.3467 56.3706C33.2071 56.5145 33.0978 56.6849 33.0253 56.8718C32.6598 57.8145 32.9616 58.7136 33.203 59.2331C33.4444 59.7526 33.6363 60.104 33.6483 60.1471C33.7041 60.3478 33.801 60.5347 33.933 60.6959C34.065 60.857 34.2291 60.9889 34.4148 61.0832C34.6006 61.1775 34.8039 61.232 35.0119 61.2433C35.2199 61.2547 35.428 61.2226 35.6229 61.1491C36.5424 60.8017 37.4229 60.4247 38.1737 60.2565C38.9196 60.0894 39.4461 60.1082 39.9569 60.3718C40.0074 60.3982 40.0331 60.5029 40.0643 60.6042C38.1063 60.695 35.8769 60.7097 33.6874 62.0436L33.6854 62.0456C29.9182 64.3195 30.3109 70.3013 34.285 72.1276C34.3057 72.1365 34.3265 72.145 34.3475 72.153C36.6465 73.086 39.1742 72.7818 41.2088 71.5749C41.3342 71.8215 41.5254 72.0287 41.7611 72.1734C41.9969 72.3182 42.2681 72.395 42.5448 72.3952H44.6913C44.8891 72.3949 45.0849 72.3555 45.2674 72.2793C45.4499 72.2031 45.6156 72.0915 45.7548 71.951C45.894 71.8105 46.0041 71.6438 46.0787 71.4606C46.1532 71.2774 46.1908 71.0813 46.1893 70.8835C46.1621 67.6192 46.2339 64.3149 46.1737 60.9811C46.1737 59.0585 45.4428 56.6628 43.1893 55.655C41.627 54.9497 39.984 54.7488 38.3846 54.8718ZM42.6737 59.1784C42.7849 59.3662 42.8638 59.5507 42.9354 59.78C42.8767 59.5869 42.7744 59.3846 42.6737 59.1784ZM43.1776 62.6784C43.1795 62.9622 43.1769 63.2515 43.1776 63.5358C43.1201 63.3564 43.0293 63.1894 42.91 63.0436C43.0172 62.9361 43.1074 62.813 43.1776 62.6784ZM43.1796 64.778C43.1773 65.9115 43.1906 67.0446 43.1874 68.1862C43.0343 67.97 42.8268 67.7982 42.5858 67.6882C42.7524 67.3354 42.931 66.9788 43.0096 66.6374C43.1712 65.9358 43.1608 65.3586 43.1796 64.778ZM34.5878 65.4343C34.4997 65.6615 34.4056 65.8834 34.3573 66.1296C34.4102 65.8738 34.4748 65.6534 34.5878 65.4343ZM40.1131 65.6296C40.0984 65.7265 40.1057 65.8773 40.0858 65.9636C39.9656 66.4856 39.8303 66.7199 39.5213 66.9186C39.4668 66.9536 39.4146 66.9921 39.3651 67.0339C39.0854 67.27 38.2491 67.4567 37.7499 67.3268C37.5003 67.2619 37.368 67.1583 37.3221 67.1003C37.2784 67.0449 37.2412 66.9976 37.2694 66.737C37.3269 66.3668 37.4111 66.2628 37.5624 66.1354C37.717 66.0052 38.0157 65.8615 38.4628 65.7643C38.8906 65.6713 39.5468 65.6578 40.1131 65.6296ZM34.3026 66.5241C34.2744 66.8945 34.2959 67.2612 34.3729 67.612C34.2913 67.2423 34.2698 66.9004 34.3026 66.5241ZM34.451 67.8991C34.543 68.1956 34.6847 68.4613 34.8475 68.7116C34.6693 68.4667 34.5477 68.2088 34.451 67.8991ZM35.3124 69.1745C35.4116 69.2711 35.5371 69.3014 35.6444 69.3835C35.6023 69.3684 35.5552 69.3921 35.5135 69.3757C35.4285 69.3343 35.3893 69.2291 35.3124 69.1745ZM41.3006 69.3249L41.1444 69.4401C41.1761 69.4197 41.1859 69.385 41.2167 69.3639C41.242 69.3435 41.2756 69.346 41.3006 69.3249Z" fill="#2B2B2B"></path><path d="M48.5312 56.6284C49.3159 56.6284 50.095 56.6339 50.8797 56.6339C51.0004 57.1991 51.1267 57.7643 51.2474 58.3295C53.1734 56.4583 56.1585 55.734 58.6441 56.8918C60.2628 57.5338 60.954 59.3665 60.9869 60.9962C61.0528 64.2885 60.9597 67.5807 61.0256 70.873C60.0104 70.8785 58.9951 70.8785 57.9855 70.873C58.0129 68.1295 58.0131 65.3859 58.0131 62.6423C58.0021 61.5449 57.9526 60.3323 57.2118 59.4543C55.3352 58.0002 51.9662 59.0153 51.7248 61.5559C51.2584 64.6342 51.6645 67.7893 51.5219 70.9005C50.5232 70.895 49.53 70.895 48.5312 70.895V56.6284Z" fill="#2B2B2B"></path><path d="M56.8731 54.8671C55.2363 54.6971 53.5878 55.064 52.1484 55.8358C52.0134 55.6212 51.8261 55.4443 51.604 55.3216C51.382 55.199 51.1325 55.1347 50.8789 55.1347C50.1012 55.1347 49.323 55.1288 48.5312 55.1288C48.1335 55.1288 47.7519 55.2869 47.4706 55.5682C47.1893 55.8495 47.0313 56.231 47.0312 56.6288V70.8944C47.0313 71.2922 47.1893 71.6737 47.4706 71.955C47.7519 72.2363 48.1335 72.3944 48.5312 72.3944C49.53 72.3944 50.5204 72.3948 51.5137 72.4003C51.9009 72.4022 52.2739 72.2542 52.5546 71.9874C52.8352 71.7205 53.002 71.3555 53.0196 70.9686C53.1703 67.681 52.7828 64.5819 53.2071 61.7811C53.2118 61.7533 53.2156 61.7253 53.2188 61.6972C53.2791 61.0623 53.6796 60.6589 54.3535 60.4218C54.9622 60.2075 55.6328 60.3422 56.1055 60.619C56.3671 61.0325 56.504 61.6883 56.5137 62.6581C56.5137 65.3965 56.5137 68.129 56.4864 70.8573C56.4844 71.0548 56.5213 71.2507 56.5951 71.4339C56.669 71.617 56.7783 71.7838 56.9167 71.9246C57.0552 72.0654 57.2202 72.1775 57.402 72.2544C57.5839 72.3314 57.7792 72.3716 57.9767 72.3729C58.9917 72.3785 60.0126 72.3785 61.0332 72.3729C61.232 72.3719 61.4286 72.3314 61.6116 72.2537C61.7946 72.176 61.9605 72.0628 62.0993 71.9205C62.2382 71.7782 62.3473 71.6097 62.4204 71.4248C62.4936 71.24 62.5293 71.0424 62.5254 70.8436C62.4605 67.5997 62.5533 64.3073 62.4864 60.9667C62.4456 58.9461 61.5928 56.477 59.2285 55.5175C58.4633 55.1675 57.6706 54.9499 56.8731 54.8671ZM58.422 58.6268C59.0365 59.1204 59.4657 60.0008 59.4864 61.0272C59.495 61.4557 59.4884 61.9017 59.4922 62.3319C59.4797 61.2583 59.3898 59.8677 58.422 58.6268ZM50.0312 59.205C50.2491 59.507 50.5715 59.7172 50.9356 59.7948C50.6449 60.2975 50.3006 60.7697 50.2383 61.4003C50.0327 62.7916 50.0258 64.141 50.0312 65.4725V59.205ZM59.5039 65.5233C59.4988 66.8048 59.5099 68.0767 59.5196 69.3729C59.5105 69.3729 59.5013 69.3729 59.4922 69.3729C59.5007 68.0883 59.5023 66.8058 59.5039 65.5233Z" fill="#2B2B2B"></path><path d="M65.168 58.9814C66.024 56.9841 68.4109 56.2488 70.4247 56.375C72.8171 56.6055 75.2095 56.6933 77.6128 56.6274V58.2406C76.8446 58.3833 76.0764 58.5205 75.3082 58.6577C75.9392 60.4629 76.252 62.7511 74.8308 64.2765C73.4371 65.8348 71.2368 65.9391 69.2998 65.983C68.2847 65.8348 67.4342 67.2999 68.3012 68.0132C70.6936 68.7704 73.4261 67.684 75.6978 68.9789C77.4976 69.9337 77.7226 72.3919 76.9928 74.0929C75.835 76.5128 72.8555 77.0725 70.4466 77.1987C68.1036 77.2919 65.1131 77.0779 63.9115 74.713C62.9128 72.6773 64.3888 70.3727 66.474 69.8843C66.0185 69.1765 65.3546 68.5016 65.3601 67.6072C65.4259 66.5427 66.3862 65.9555 67.0666 65.2751C64.8937 64.0515 64.0871 61.2037 65.168 58.9814ZM69.0255 58.5095C67.3574 59.3381 67.2147 61.8896 68.2792 63.2614C69.7553 64.924 73.1024 63.9637 72.9707 61.5439C73.4755 59.2942 71.0722 57.434 69.0255 58.5095ZM68.3286 70.9927C66.8306 71.0476 65.7826 72.8254 66.5782 74.1368C68.356 75.6348 71.0502 75.3056 73.1079 74.5923C74.4906 74.2027 75.3466 72.1066 73.9035 71.2451C72.1147 70.6909 70.1723 70.8336 68.3286 70.9927Z" fill="#2B2B2B"></path><path d="M70.5169 54.8787C69.2916 54.8019 67.9812 54.9742 66.7611 55.5076C65.5504 56.0369 64.4123 56.9795 63.808 58.3631C62.6897 60.6994 63.1741 63.4461 64.8568 65.3103C64.4069 65.8088 63.9214 66.5646 63.8626 67.5154C63.8606 67.5427 63.8593 67.5701 63.8587 67.5974C63.8544 68.2946 64.0875 68.8076 64.3255 69.2732C63.6773 69.7287 63.1183 70.2921 62.7298 70.9783C62.0179 72.2358 61.8372 73.8917 62.5638 75.3728C62.567 75.3794 62.5703 75.3859 62.5736 75.3924C63.3937 77.0065 64.8904 77.9089 66.3412 78.3201C67.7919 78.7313 69.2628 78.7465 70.5052 78.6971C70.5117 78.6971 70.5182 78.6971 70.5248 78.6971C71.8126 78.6296 73.2984 78.4554 74.7259 77.906C76.1535 77.3567 77.5694 76.3612 78.3451 74.74C78.3539 74.7213 78.3624 74.7024 78.3705 74.6834C78.8606 73.5409 79.02 72.2407 78.763 70.9607C78.5072 69.6861 77.7507 68.3828 76.4134 67.6658C75.4063 67.0986 74.4021 66.9344 73.4369 66.867C74.3298 66.5508 75.2002 66.1039 75.933 65.2908C76.9307 64.2154 77.3113 62.8489 77.3373 61.6033C77.3503 60.9748 77.1426 60.4515 77.0287 59.8709C77.3149 59.8189 77.5989 59.768 77.8861 59.7146C78.2305 59.6507 78.5418 59.4683 78.7658 59.199C78.9899 58.9296 79.1126 58.5904 79.1126 58.24V56.6267C79.1124 56.4264 79.0721 56.2282 78.9941 56.0437C78.916 55.8592 78.8018 55.6923 78.6582 55.5526C78.5145 55.413 78.3444 55.3036 78.1578 55.2307C77.9712 55.1579 77.7719 55.1232 77.5716 55.1287C75.2321 55.1928 72.9013 55.1074 70.5677 54.8826C70.5508 54.881 70.5339 54.8797 70.5169 54.8787ZM68.3568 57.1658C68.3506 57.1689 68.3493 57.1764 68.3431 57.1795C68.338 57.1821 68.3325 57.1788 68.3275 57.1814L68.3568 57.1658ZM73.0853 57.9666C73.3773 57.9813 73.67 57.9855 73.9623 57.9959C73.8182 58.2888 73.7737 58.6207 73.8353 58.9412C73.6207 58.5861 73.3888 58.2484 73.0853 57.9666ZM69.722 59.8377C70.7102 59.3184 71.7506 60.1297 71.5072 61.2146C71.4767 61.3491 71.4648 61.4871 71.472 61.6248C71.4998 62.1354 71.2675 62.3383 70.7533 62.5096C70.2575 62.6747 69.7284 62.5522 69.4486 62.2732C69.2289 61.9545 69.0541 61.3763 69.1165 60.8631C69.182 60.325 69.3928 60.0023 69.6927 59.8533C69.7025 59.8482 69.7123 59.843 69.722 59.8377ZM74.4681 61.4627L74.433 61.8728C74.4401 61.8409 74.4188 61.8148 74.4251 61.783C74.4292 61.6723 74.4743 61.5765 74.4681 61.4627ZM67.9095 69.4529C68.0217 69.4873 68.1226 69.4774 68.2337 69.5056C68.1265 69.5109 68.0487 69.583 67.9447 69.5974C67.9354 69.5487 67.9236 69.5005 67.9095 69.4529ZM74.9193 70.2752C74.9285 70.2803 74.9453 70.2758 74.9544 70.281C74.9673 70.289 74.9804 70.2969 74.9935 70.3045C75.1544 70.3898 75.1748 70.6204 75.2884 70.7478C75.1637 70.5876 75.0804 70.4088 74.9193 70.2752ZM71.1087 72.3572C71.8344 72.3677 72.4981 72.4737 73.1302 72.6326C73.1168 72.6483 73.1434 72.6164 73.1302 72.6599C73.0688 72.8624 72.7938 73.122 72.7005 73.1482C72.6723 73.1565 72.6443 73.1656 72.6165 73.1756C70.9882 73.74 69.1834 73.7891 68.0013 73.1267C68.0531 72.8495 68.134 72.5011 68.3822 72.492C68.407 72.4906 68.4317 72.4887 68.4564 72.4861C69.3716 72.4071 70.2653 72.345 71.1087 72.3572ZM73.599 76.0096L73.515 76.0349C73.5253 76.032 73.5301 76.0223 73.5404 76.0193C73.5576 76.0134 73.5819 76.0155 73.599 76.0096Z" fill="#2B2B2B"></path><path d="M83.278 56.8849C85.6429 55.985 88.6663 56.0947 90.6088 57.878C93.2536 60.2046 93.3359 64.3199 92.2494 67.4256C90.3783 72.375 82.3123 72.4244 80.2601 67.6067C78.7676 64.0236 79.234 58.5749 83.278 56.8849ZM84.4687 59.162C82.2025 60.6381 82.3616 63.8919 82.8884 66.224C83.4042 68.9291 87.4537 69.6095 88.9572 67.3982C90.104 65.3186 90.093 62.6738 89.1767 60.5119C88.381 58.7779 86.0655 58.4158 84.4687 59.162Z" fill="#2B2B2B"></path><path d="M87.2989 54.8713C85.7406 54.7014 84.1441 54.9499 82.7442 55.4826C82.7291 55.4882 82.7141 55.4941 82.6993 55.5002C80.167 56.5584 78.7361 58.8561 78.2266 61.2209C77.7171 63.5856 78.0037 66.0919 78.875 68.1838C78.877 68.1877 78.8789 68.1916 78.8809 68.1955C81.4899 74.3203 91.2782 74.2353 93.6524 67.9552C93.6571 67.9442 93.6616 67.9332 93.666 67.922C94.8952 64.4085 94.8892 59.6606 91.6094 56.7638C90.3663 55.6281 88.8518 55.0405 87.2989 54.8713ZM86.7676 60.3634C87.2905 60.4909 87.6153 60.7351 87.8008 61.1291C88.5235 62.8583 88.5065 65.0004 87.666 66.59C86.9069 67.5861 84.6112 67.2537 84.3614 65.9435C84.3584 65.9265 84.3551 65.9096 84.3516 65.8927C84.1141 64.8413 83.9774 63.5915 84.1172 62.5763C84.2495 61.6161 84.5784 60.9657 85.2012 60.5119C85.6584 60.3249 86.27 60.2422 86.7676 60.3634ZM90.6563 60.4318C91.1079 61.3232 91.2074 62.3481 91.2344 63.4318C91.1919 62.4027 91.0055 61.3908 90.6563 60.4318ZM81.5176 60.9982C81.3951 61.3912 81.1985 61.7752 81.1446 62.1662C81.1619 62.0649 81.1388 61.9509 81.1602 61.8517C81.2308 61.5239 81.41 61.2934 81.5176 60.9982ZM81.1446 62.172C80.9584 63.5276 81.1621 64.8082 81.3887 65.9748C81.0621 64.7545 80.9317 63.4243 81.1446 62.172ZM81.4141 66.506C81.4155 66.5133 81.4224 66.5164 81.4239 66.5236C81.4259 66.5327 81.4238 66.5457 81.4258 66.5548L81.4141 66.506ZM90.8711 66.6095C90.8411 66.7054 90.8687 66.8162 90.836 66.9103C90.7788 67.0592 90.6691 67.1663 90.5957 67.3029C90.6926 67.0728 90.7951 66.8452 90.8711 66.6095ZM81.5977 66.8322C81.6812 67.1276 81.8836 67.3254 82.0176 67.5841C81.8925 67.3965 81.734 67.2374 81.6426 67.0236C81.6191 66.967 81.6201 66.8903 81.5977 66.8322Z" fill="#2B2B2B"></path><path d="M101.433 172.559C103.271 170.957 105.872 171.445 108.067 171.835C107.836 172.619 107.617 173.404 107.392 174.183C106.201 174.106 104.747 173.442 103.754 174.424C103.051 175.22 103.348 176.372 103.21 177.344H106.695V179.687C105.559 179.681 104.429 179.676 103.298 179.67C103.21 183.643 103.26 187.615 103.271 191.588C102.217 191.599 101.164 191.61 100.11 191.621C100.094 187.637 100.137 183.654 100.088 179.67C99.2925 179.676 98.4969 179.676 97.7067 179.681C97.2952 178.062 98.9578 177.821 100.044 177.294C100.247 175.67 100.126 173.771 101.433 172.559Z" fill="#2B2B2B"></path><path d="M104.579 169.951C103.208 169.986 101.688 170.346 100.448 171.427C100.436 171.437 100.425 171.448 100.413 171.458C98.791 172.963 98.7357 174.858 98.6416 176.29C98.2723 176.431 97.9779 176.504 97.4912 176.824C97.0897 177.087 96.6418 177.492 96.3759 178.089C96.1101 178.687 96.0884 179.403 96.2529 180.05C96.3355 180.375 96.5246 180.663 96.7902 180.868C97.0557 181.073 97.3823 181.184 97.7177 181.181C98.0049 181.179 98.3005 181.178 98.5908 181.177C98.6156 184.648 98.5958 188.126 98.6103 191.626C98.6111 191.824 98.651 192.02 98.7277 192.202C98.8044 192.385 98.9164 192.55 99.0573 192.689C99.1981 192.828 99.3651 192.937 99.5485 193.011C99.7319 193.085 99.9281 193.123 100.126 193.121C101.179 193.11 102.234 193.098 103.288 193.087C103.684 193.083 104.062 192.923 104.34 192.641C104.618 192.359 104.773 191.979 104.772 191.583C104.763 188.095 104.745 184.631 104.794 181.177C105.425 181.18 106.056 181.184 106.688 181.187C106.886 181.188 107.082 181.15 107.265 181.075C107.448 181 107.614 180.89 107.754 180.75C107.894 180.611 108.005 180.445 108.081 180.263C108.157 180.08 108.196 179.885 108.196 179.687V177.343C108.196 176.945 108.038 176.564 107.757 176.283C107.476 176.001 107.094 175.843 106.696 175.843H104.782C104.803 175.625 104.834 175.527 104.866 175.482C104.957 175.397 104.985 175.369 105.376 175.402C105.81 175.438 106.463 175.625 107.296 175.679C107.637 175.701 107.975 175.606 108.254 175.409C108.534 175.213 108.738 174.927 108.833 174.599C109.061 173.811 109.28 173.029 109.507 172.259C109.567 172.057 109.583 171.844 109.555 171.635C109.527 171.426 109.455 171.225 109.344 171.045C109.233 170.866 109.086 170.711 108.911 170.593C108.737 170.474 108.539 170.394 108.331 170.357C107.239 170.163 105.95 169.916 104.579 169.951ZM102.501 173.662C102.406 173.791 102.351 173.926 102.28 174.06C102.348 173.952 102.355 173.766 102.444 173.681C102.46 173.668 102.486 173.674 102.501 173.662ZM101.923 174.878C101.852 175.177 101.789 175.478 101.774 175.726C101.735 176.376 101.762 176.876 101.726 177.132C101.688 177.398 101.723 177.669 101.826 177.917C101.929 178.166 102.097 178.381 102.311 178.542C102.155 178.679 102.029 178.847 101.941 179.036C101.853 179.224 101.805 179.428 101.8 179.636C101.722 183.145 101.761 186.628 101.776 190.103C101.72 190.104 101.664 190.104 101.608 190.105C101.605 186.633 101.632 183.153 101.589 179.652C101.586 179.42 101.53 179.193 101.424 178.987C101.319 178.781 101.167 178.602 100.981 178.464C101.287 178.221 101.485 177.867 101.534 177.48C101.668 176.407 101.763 175.571 101.923 174.878Z" fill="#2B2B2B"></path><path d="M225.217 171.61C226.216 171.605 227.22 171.599 228.224 171.594C228.186 175.725 228.295 179.857 228.081 183.989C230.024 181.728 232.048 179.533 234.106 177.377C235.247 177.355 236.394 177.344 237.547 177.344C235.758 179.479 233.728 181.388 231.906 183.495C233.892 186.211 235.95 188.878 237.947 191.589C236.789 191.605 235.632 191.671 234.485 191.545C232.839 189.63 231.45 187.49 229.974 185.443C229.393 185.898 228.515 186.145 228.257 186.897C228.125 188.461 228.235 190.041 228.218 191.611H225.217V171.61Z" fill="#2B2B2B"></path><path d="M228.217 170.094C227.212 170.099 226.207 170.104 225.209 170.109C224.813 170.112 224.433 170.27 224.153 170.552C223.874 170.833 223.717 171.213 223.717 171.609V191.611C223.717 192.009 223.875 192.391 224.156 192.672C224.437 192.953 224.819 193.111 225.217 193.111H228.219C228.614 193.111 228.992 192.955 229.273 192.677C229.553 192.399 229.713 192.022 229.717 191.627C229.732 190.204 229.693 188.905 229.748 187.658C230.883 189.278 231.988 190.941 233.348 192.523C233.595 192.812 233.943 192.995 234.32 193.037C235.633 193.181 236.852 193.105 237.967 193.09C238.243 193.086 238.512 193.007 238.746 192.86C238.979 192.713 239.168 192.504 239.291 192.257C239.413 192.01 239.466 191.734 239.442 191.459C239.418 191.184 239.318 190.921 239.154 190.699C237.389 188.302 235.599 185.956 233.852 183.594C235.416 181.876 237.099 180.214 238.697 178.307C238.88 178.088 238.997 177.821 239.034 177.538C239.071 177.255 239.027 176.968 238.906 176.709C238.785 176.45 238.593 176.232 238.352 176.078C238.112 175.925 237.832 175.844 237.547 175.844C236.384 175.844 235.227 175.855 234.076 175.877C233.878 175.881 233.683 175.924 233.502 176.004C233.321 176.084 233.158 176.199 233.021 176.342C231.865 177.553 230.756 178.823 229.625 180.068C229.663 177.234 229.699 174.389 229.725 171.607C229.726 171.409 229.689 171.211 229.614 171.027C229.539 170.843 229.428 170.676 229.287 170.535C229.147 170.394 228.98 170.283 228.796 170.207C228.613 170.131 228.416 170.093 228.217 170.094ZM230.416 183.654C230.43 183.788 230.461 183.92 230.51 184.045C230.392 183.999 230.268 183.968 230.143 183.953C230.231 183.852 230.327 183.755 230.416 183.654ZM226.717 184.613C226.806 184.808 226.936 184.982 227.097 185.122C227.259 185.263 227.449 185.367 227.654 185.428C227.35 185.714 227.011 185.907 226.838 186.41C226.798 186.527 226.772 186.648 226.762 186.772C226.661 187.961 226.713 189.028 226.732 190.111H226.717V184.613Z" fill="#2B2B2B"></path><path d="M112.193 179.698C113.576 177.86 115.71 176.707 118.048 177.053C118.01 178.002 117.966 178.957 117.922 179.906C115.65 179.424 112.907 180.587 112.522 183.067C112.297 185.909 112.506 188.763 112.429 191.61H109.439V177.311C110.201 177.316 110.959 177.355 111.721 177.415C111.935 178.162 112.04 178.93 112.193 179.698Z" fill="#2B2B2B"></path><path d="M118.268 175.57C116.356 175.288 114.591 175.859 113.113 176.857C113.009 176.598 112.835 176.373 112.61 176.207C112.385 176.042 112.118 175.942 111.84 175.92C111.051 175.858 110.256 175.816 109.449 175.811C109.251 175.809 109.055 175.847 108.872 175.922C108.689 175.997 108.523 176.107 108.382 176.247C108.242 176.386 108.131 176.552 108.055 176.734C107.979 176.917 107.939 177.113 107.939 177.311V191.609C107.939 192.007 108.098 192.389 108.379 192.67C108.66 192.951 109.042 193.109 109.439 193.109H112.43C112.82 193.11 113.196 192.957 113.476 192.685C113.756 192.412 113.919 192.041 113.93 191.65C114.009 188.733 113.815 185.937 114.018 183.272C114.139 182.547 114.546 182.059 115.219 181.701C115.901 181.339 116.835 181.208 117.611 181.373C117.824 181.418 118.044 181.417 118.256 181.369C118.468 181.32 118.667 181.226 118.84 181.094C119.012 180.961 119.153 180.792 119.254 180.599C119.354 180.406 119.412 180.194 119.422 179.977C119.466 179.027 119.509 178.068 119.547 177.113C119.561 176.744 119.439 176.382 119.203 176.097C118.967 175.812 118.634 175.625 118.268 175.57ZM110.939 180.52C111.135 180.818 111.431 181.037 111.773 181.137C111.462 181.662 111.142 182.188 111.041 182.838C111.035 182.875 111.031 182.912 111.027 182.949C110.831 185.436 110.943 187.791 110.945 190.109H110.939V180.52Z" fill="#2B2B2B"></path><path d="M216.438 179.764C217.776 177.865 219.949 176.713 222.303 177.059C222.265 178.003 222.221 178.952 222.183 179.901C219.905 179.429 217.156 180.582 216.778 183.073C216.558 185.91 216.756 188.763 216.69 191.611H213.694C213.689 186.853 213.694 182.102 213.694 177.35C214.462 177.344 215.23 177.339 215.999 177.339C216.147 178.145 216.284 178.952 216.438 179.764Z" fill="#2B2B2B"></path><path d="M222.522 175.575C220.639 175.298 218.883 175.851 217.412 176.837C217.308 176.545 217.117 176.293 216.863 176.115C216.61 175.936 216.308 175.841 215.998 175.841C215.223 175.841 214.451 175.845 213.682 175.851C213.286 175.854 212.908 176.013 212.629 176.294C212.35 176.575 212.194 176.955 212.194 177.351C212.194 182.101 212.189 186.854 212.194 191.614C212.194 192.012 212.352 192.393 212.634 192.674C212.915 192.954 213.296 193.112 213.694 193.112H216.69C217.082 193.112 217.458 192.959 217.738 192.685C218.018 192.412 218.181 192.039 218.19 191.647C218.257 188.736 218.075 185.941 218.274 183.274C218.393 182.545 218.797 182.06 219.471 181.702C220.154 181.34 221.095 181.208 221.879 181.37C222.092 181.414 222.312 181.411 222.524 181.362C222.736 181.312 222.935 181.217 223.106 181.083C223.278 180.949 223.418 180.78 223.518 180.586C223.617 180.392 223.673 180.179 223.682 179.962C223.72 179.019 223.763 178.07 223.801 177.12C223.816 176.75 223.694 176.388 223.458 176.102C223.221 175.817 222.888 175.629 222.522 175.575ZM215.194 180.602C215.386 180.888 215.671 181.099 216 181.2C215.706 181.713 215.391 182.219 215.295 182.849C215.29 182.885 215.286 182.921 215.283 182.958C215.091 185.434 215.2 187.79 215.205 190.112H215.194C215.192 186.941 215.193 183.772 215.194 180.602Z" fill="#2B2B2B"></path><path d="M121.505 178.091C124.166 177.218 127.2 176.467 129.856 177.762C131.349 178.442 131.919 180.176 131.919 181.712C131.98 185.01 131.914 188.313 131.936 191.611C131.217 191.611 130.498 191.606 129.785 191.606C129.604 191.019 129.423 190.431 129.247 189.844C127.486 191.512 124.989 192.401 122.608 191.65C119.458 190.717 118.915 185.756 121.675 184.061C123.897 182.7 126.613 183.035 129.094 182.711C128.869 181.701 128.978 180.341 127.925 179.77C126.098 178.799 124.051 179.819 122.3 180.467C121.988 179.693 121.713 178.903 121.505 178.091ZM124.473 185.295C122.717 185.844 122.465 188.791 124.276 189.433C125.719 189.855 127.458 189.394 128.342 188.127C129.061 187.139 128.88 185.844 128.984 184.703C127.475 184.818 125.911 184.78 124.473 185.295Z" fill="#2B2B2B"></path><path d="M125.578 175.606C123.96 175.756 122.407 176.217 121.037 176.667C120.676 176.785 120.373 177.037 120.19 177.37C120.006 177.704 119.957 178.095 120.051 178.464C120.28 179.357 120.579 180.209 120.909 181.028C121.055 181.39 121.336 181.681 121.693 181.839C122.05 181.997 122.455 182.009 122.821 181.874C123.758 181.527 124.652 181.146 125.412 180.975C126.17 180.806 126.699 180.825 127.213 181.096C127.257 181.12 127.285 181.227 127.317 181.329C125.337 181.417 123.09 181.435 120.891 182.782V182.784C116.948 185.206 117.689 191.743 122.17 193.083C124.37 193.772 126.593 193.338 128.446 192.28C128.571 192.528 128.762 192.737 128.999 192.883C129.235 193.029 129.508 193.106 129.786 193.106C130.491 193.106 131.21 193.112 131.936 193.112C132.134 193.112 132.33 193.073 132.512 192.997C132.695 192.921 132.861 192.81 133 192.669C133.139 192.529 133.25 192.362 133.324 192.179C133.399 191.996 133.437 191.8 133.436 191.602C133.414 188.341 133.479 185.04 133.418 181.714C133.418 179.812 132.715 177.433 130.493 176.409C128.866 175.622 127.19 175.457 125.578 175.606ZM129.934 179.917C130.04 180.099 130.115 180.279 130.184 180.501C130.127 180.313 130.03 180.117 129.934 179.917ZM130.422 183.407C130.424 183.699 130.423 183.997 130.424 184.29C130.37 184.101 130.279 183.924 130.157 183.77C130.263 183.663 130.352 183.541 130.422 183.407ZM124.026 183.864C124.02 183.866 124.018 183.872 124.012 183.874C123.997 183.879 123.983 183.878 123.967 183.884L124.026 183.864ZM121.953 186.009C121.798 186.403 121.585 186.784 121.555 187.19C121.599 186.737 121.731 186.36 121.953 186.009ZM127.239 186.428C127.2 186.64 127.215 187.127 127.129 187.245C127.123 187.253 127.117 187.262 127.112 187.27C126.67 187.904 125.606 188.207 124.766 187.993C124.584 187.918 124.51 187.791 124.534 187.425C124.558 187.04 124.752 186.78 124.92 186.727C124.94 186.721 124.959 186.715 124.979 186.708C125.577 186.493 126.466 186.491 127.239 186.428ZM130.428 186.43C130.425 187.262 130.434 188.091 130.432 188.927C130.26 188.705 130.029 188.536 129.766 188.438C130.131 187.731 130.388 187.057 130.428 186.43ZM121.547 187.268C121.488 188.354 122.07 189.458 123.034 190.214C121.929 189.886 121.453 188.518 121.547 187.268ZM129.573 188.987L129.555 189.011C129.557 189.007 129.557 189.004 129.559 189.001C129.563 188.995 129.569 188.993 129.573 188.987Z" fill="#2B2B2B"></path><path d="M135.778 177.344H138.121C138.247 177.915 138.368 178.486 138.494 179.062C140.76 176.51 145.342 176.22 147.367 179.21C149.518 176.269 155.384 176.082 156.475 180.028C157.123 183.847 156.624 187.754 156.772 191.611H153.743C153.65 188.209 153.913 184.785 153.611 181.394C153.073 178.568 148.536 179.111 148.053 181.718C147.367 184.961 147.828 188.308 147.718 191.6C146.703 191.595 145.693 191.595 144.684 191.584C144.711 188.664 144.717 185.74 144.711 182.821C144.706 181.778 144.585 180.538 143.625 179.912C142.461 179.199 140.881 179.501 139.86 180.318C138.999 181.279 138.818 182.65 138.774 183.896C138.747 186.464 138.801 189.038 138.763 191.616C137.77 191.611 136.771 191.611 135.778 191.611C135.773 186.854 135.778 182.102 135.778 177.344Z" fill="#2B2B2B"></path><path d="M152.381 175.536C150.555 175.459 148.68 176.019 147.248 177.206C145.994 176.198 144.53 175.542 143.004 175.558C141.742 175.571 140.536 175.984 139.416 176.591C139.285 176.364 139.096 176.175 138.869 176.044C138.641 175.913 138.384 175.843 138.121 175.843H135.778C135.38 175.843 134.998 176.001 134.717 176.282C134.436 176.564 134.278 176.945 134.278 177.343C134.278 182.1 134.273 186.853 134.278 191.612C134.278 192.01 134.436 192.391 134.718 192.672C134.999 192.953 135.38 193.11 135.778 193.11C136.771 193.11 137.768 193.109 138.756 193.114C139.151 193.116 139.53 192.962 139.812 192.685C140.094 192.409 140.256 192.033 140.262 191.638C140.3 189.037 140.248 186.473 140.274 183.948C140.312 182.856 140.529 181.953 140.948 181.427C141.521 181.05 142.359 180.923 142.817 181.187C142.932 181.266 143.006 181.351 143.086 181.628C143.17 181.917 143.209 182.361 143.211 182.827C143.217 185.741 143.211 188.658 143.184 191.569C143.18 191.967 143.335 192.35 143.613 192.633C143.891 192.917 144.271 193.079 144.668 193.083C145.688 193.094 146.701 193.094 147.711 193.099C148.101 193.1 148.477 192.95 148.758 192.68C149.039 192.409 149.204 192.04 149.217 191.65C149.333 188.184 148.905 184.934 149.52 182.028C149.523 182.016 149.525 182.004 149.528 181.991C149.619 181.497 150.211 181.075 150.94 181.013C151.304 180.982 151.63 181.062 151.811 181.171C151.982 181.274 152.059 181.369 152.119 181.646C152.391 184.837 152.15 188.186 152.244 191.652C152.255 192.042 152.418 192.413 152.697 192.685C152.977 192.957 153.352 193.11 153.742 193.11H156.772C156.974 193.111 157.174 193.07 157.36 192.991C157.546 192.912 157.714 192.796 157.854 192.651C157.994 192.505 158.103 192.333 158.175 192.144C158.247 191.955 158.28 191.754 158.272 191.552C158.13 187.863 158.651 183.887 157.953 179.777C157.945 179.727 157.934 179.677 157.92 179.628C157.189 176.984 154.715 175.635 152.381 175.536ZM144.672 178.884C145.244 179.126 145.748 179.493 146.125 180.05C146.311 180.325 146.583 180.53 146.899 180.634C146.786 180.894 146.641 181.131 146.584 181.429C146.249 183.026 146.204 184.583 146.201 186.109C146.203 185.011 146.213 183.913 146.211 182.818V182.814C146.208 182.237 146.185 181.538 145.967 180.79C145.774 180.128 145.338 179.422 144.672 178.884ZM153.701 178.925C154.305 179.21 154.783 179.645 155.002 180.388C155.034 180.584 155.01 180.801 155.035 180.999C154.839 180.129 154.329 179.429 153.701 178.925ZM137.278 179.939C137.482 180.223 137.78 180.427 138.119 180.515C137.568 181.648 137.313 182.832 137.278 183.827C137.278 182.531 137.277 181.235 137.278 179.939ZM155.123 182.569C155.272 184.978 155.27 187.49 155.282 190.11H155.223C155.218 187.667 155.257 185.152 155.123 182.569ZM146.192 189.345C146.197 189.593 146.197 189.846 146.199 190.091C146.196 190.091 146.192 190.091 146.188 190.091C146.189 189.842 146.19 189.594 146.192 189.345Z" fill="#2B2B2B"></path><path d="M160.72 181.004C162.097 176.811 168.122 175.758 171.14 178.765C172.791 180.449 172.813 182.962 172.819 185.174C169.603 185.163 166.393 185.19 163.178 185.146C163.403 186.617 163.721 188.367 165.225 189.075C167.447 190.156 169.954 189.289 172.155 188.581C172.133 189.399 172.111 190.216 172.094 191.039C169.071 192.044 165.345 192.527 162.629 190.496C159.803 188.296 159.743 184.142 160.72 181.004ZM163.266 182.973C165.477 182.984 167.694 182.984 169.911 182.962C169.768 181.338 168.945 179.467 167.068 179.39C164.906 179.039 163.37 180.987 163.266 182.973Z" fill="#2B2B2B"></path><path d="M164.963 175.674C162.438 176.192 160.174 177.86 159.295 180.537C159.292 180.544 159.29 180.552 159.287 180.559C158.74 182.315 158.477 184.331 158.764 186.317C159.05 188.302 159.937 190.302 161.707 191.68C161.715 191.686 161.723 191.692 161.731 191.697C165.065 194.191 169.33 193.539 172.566 192.463C172.861 192.365 173.117 192.179 173.301 191.93C173.485 191.68 173.587 191.38 173.594 191.07C173.611 190.254 173.632 189.439 173.654 188.621C173.661 188.381 173.61 188.144 173.505 187.928C173.401 187.712 173.247 187.524 173.055 187.38C172.863 187.236 172.639 187.141 172.403 187.101C172.166 187.061 171.924 187.079 171.695 187.152C169.471 187.868 167.42 188.475 165.881 187.727C165.875 187.724 165.869 187.721 165.863 187.719C165.505 187.55 165.309 187.309 165.106 186.82C165.088 186.777 165.083 186.699 165.066 186.652C167.657 186.669 170.244 186.665 172.815 186.674C173.012 186.674 173.208 186.636 173.391 186.56C173.573 186.485 173.739 186.374 173.879 186.235C174.019 186.095 174.13 185.929 174.205 185.746C174.28 185.563 174.319 185.368 174.318 185.17C174.312 182.951 174.38 179.927 172.211 177.715C172.207 177.711 172.203 177.707 172.199 177.703C170.275 175.786 167.488 175.155 164.963 175.674ZM167.129 177.891L167.309 177.91C167.277 177.905 167.25 177.923 167.219 177.918C167.186 177.916 167.162 177.892 167.129 177.891ZM166.828 180.871C166.887 180.881 166.946 180.886 167.006 180.889C167.456 180.907 167.632 181.044 167.895 181.434C167.9 181.441 167.899 181.459 167.904 181.467C167.077 181.471 166.251 181.47 165.424 181.469C165.45 181.438 165.447 181.376 165.475 181.348C165.862 180.947 166.236 180.775 166.828 180.871ZM161.789 183.233C161.841 183.528 161.98 183.802 162.19 184.018C161.955 184.224 161.79 184.498 161.719 184.803C161.711 184.275 161.714 183.764 161.789 183.233ZM161.727 185.502C161.816 186.083 161.987 186.771 162.213 187.467C162.003 186.976 161.816 186.47 161.732 185.889C161.715 185.766 161.739 185.628 161.727 185.502Z" fill="#2B2B2B"></path><path d="M174.471 177.344C175.492 177.344 176.518 177.344 177.544 177.35C178.526 181.174 179.503 184.999 180.37 188.851C180.858 184.889 182.285 181.13 183.371 177.311C184.468 177.333 185.571 177.361 186.68 177.394C187.651 181.075 188.715 184.735 189.665 188.428C190.384 184.697 191.481 181.054 192.381 177.361C193.385 177.35 194.395 177.339 195.404 177.339C194.12 182.118 192.77 186.881 191.382 191.627C190.252 191.611 189.122 191.6 187.991 191.589C186.976 187.709 185.84 183.857 184.935 179.951C184.04 183.879 182.85 187.731 181.791 191.616C180.693 191.616 179.59 191.649 178.504 191.567C177.011 186.875 175.793 182.085 174.471 177.344Z" fill="#2B2B2B"></path><path d="M183.401 175.811C183.069 175.804 182.745 175.908 182.479 176.105C182.212 176.302 182.019 176.582 181.928 176.901C181.428 178.661 180.838 180.449 180.299 182.28C179.859 180.514 179.448 178.734 178.996 176.977C178.914 176.656 178.728 176.371 178.467 176.168C178.205 175.964 177.884 175.852 177.553 175.85C176.521 175.844 175.492 175.844 174.471 175.844C174.24 175.844 174.011 175.898 173.804 176C173.597 176.103 173.416 176.252 173.276 176.437C173.136 176.621 173.041 176.835 172.997 177.062C172.954 177.289 172.964 177.524 173.026 177.746C174.341 182.465 175.563 187.273 177.074 192.022C177.165 192.307 177.339 192.558 177.573 192.744C177.808 192.929 178.093 193.04 178.391 193.063C179.583 193.153 180.723 193.116 181.791 193.116C182.12 193.116 182.44 193.007 182.702 192.808C182.963 192.608 183.152 192.328 183.239 192.01C183.796 189.964 184.34 187.857 184.916 185.783C185.472 187.843 186.006 189.93 186.539 191.969C186.623 192.287 186.809 192.57 187.069 192.772C187.328 192.974 187.648 193.085 187.977 193.088C189.108 193.099 190.236 193.111 191.362 193.127C191.69 193.132 192.01 193.029 192.274 192.834C192.538 192.638 192.731 192.362 192.823 192.047C194.213 187.293 195.564 182.519 196.852 177.727C196.911 177.505 196.919 177.272 196.874 177.046C196.829 176.821 196.733 176.608 196.594 176.426C196.454 176.243 196.274 176.095 196.068 175.993C195.861 175.892 195.635 175.838 195.405 175.838C194.385 175.838 193.37 175.849 192.365 175.86C192.032 175.863 191.709 175.978 191.448 176.186C191.187 176.393 191.003 176.682 190.924 177.006C190.492 178.777 190.064 180.625 189.596 182.424C189.099 180.622 188.604 178.803 188.131 177.01C188.048 176.697 187.867 176.42 187.613 176.219C187.36 176.018 187.048 175.904 186.725 175.895C185.612 175.862 184.503 175.833 183.401 175.811ZM190.348 189.762C190.314 189.879 190.282 189.997 190.248 190.114C189.882 190.109 189.516 190.106 189.151 190.102C189.124 190.002 189.099 189.905 189.073 189.805C189.275 189.892 189.495 189.933 189.715 189.926C189.935 189.918 190.152 189.862 190.348 189.762Z" fill="#2B2B2B"></path><path d="M200.679 177.612C202.94 176.739 205.771 176.8 207.741 178.341C210.655 180.613 210.814 184.953 209.656 188.18C207.763 193.091 199.741 193.129 197.694 188.328C196.185 184.75 196.652 179.313 200.679 177.612ZM201.892 179.878C199.609 181.365 199.78 184.646 200.328 186.995C200.882 189.661 204.894 190.309 206.381 188.114C207.467 186.183 207.472 183.763 206.798 181.694C206.232 179.653 203.648 179.022 201.892 179.878Z" fill="#2B2B2B"></path><path d="M204.467 175.565C202.983 175.444 201.477 175.697 200.139 176.213C200.125 176.219 200.111 176.225 200.096 176.231C197.574 177.296 196.148 179.591 195.643 181.954C195.138 184.317 195.431 186.82 196.313 188.911C196.314 188.913 196.314 188.915 196.315 188.917C198.918 195.021 208.652 194.955 211.055 188.719C211.06 188.709 211.065 188.699 211.069 188.688C211.728 186.853 212.011 184.746 211.71 182.686C211.408 180.626 210.476 178.573 208.665 177.161C207.413 176.181 205.952 175.686 204.467 175.565ZM204.327 181.126C204.886 181.308 205.216 181.604 205.352 182.096C205.358 182.117 205.365 182.138 205.372 182.159C205.93 183.872 205.883 185.843 205.094 187.303C204.351 188.295 202.064 187.973 201.797 186.69C201.795 186.678 201.792 186.667 201.79 186.655C201.543 185.597 201.399 184.337 201.536 183.313C201.666 182.34 201.997 181.682 202.631 181.223C203.117 181.014 203.793 180.951 204.327 181.126ZM208.225 181.231L208.245 181.294C208.242 181.284 208.234 181.279 208.231 181.27C208.227 181.258 208.229 181.243 208.225 181.231ZM208.282 181.635C208.47 182.108 208.662 182.577 208.741 183.12C208.957 184.597 208.744 186.264 208.251 187.651C208.152 187.904 207.981 188.1 207.837 188.317C208.852 186.167 208.896 183.776 208.282 181.635ZM198.942 181.711C198.816 182.114 198.617 182.506 198.563 182.907C198.581 182.801 198.557 182.684 198.579 182.581C198.65 182.247 198.832 182.011 198.942 181.711ZM198.563 182.934C198.385 184.286 198.592 185.561 198.825 186.727C198.49 185.513 198.358 184.187 198.563 182.934ZM198.86 187.301C198.861 187.305 198.865 187.307 198.866 187.311C198.868 187.319 198.866 187.329 198.868 187.336L198.86 187.301ZM199.047 187.624C199.074 187.711 199.144 187.762 199.174 187.846C199.153 187.801 199.095 187.788 199.075 187.741C199.06 187.706 199.062 187.659 199.047 187.624Z" fill="#2B2B2B"></path><path d="M143.342 87.5498C149.393 85.8975 155.75 86.4707 161.853 87.4982C185.095 87.5912 208.341 87.5137 231.582 87.5395V97.3452L231.066 97.3503C228.025 97.3555 224.988 97.3452 221.952 97.3452C221.751 97.3503 221.353 97.3555 221.157 97.3607C217.744 97.3503 214.336 97.3452 210.928 97.3503C210.923 100.737 210.928 104.125 210.938 107.512C210.933 107.708 210.928 108.096 210.928 108.292V123.168V124.201C210.928 129.344 210.928 134.492 210.923 139.635C210.928 139.831 210.933 140.234 210.938 140.43C210.918 146.724 210.933 153.019 210.928 159.313V159.84C207.138 159.907 203.353 159.83 199.568 159.83V159.313V129.117C199.568 128.926 199.563 128.543 199.558 128.352C199.553 126.968 199.568 125.585 199.568 124.201V123.168C199.563 121.965 199.547 120.757 199.558 119.554C199.558 119.368 199.568 118.986 199.568 118.795V97.3503H195.954H194.921C186.489 97.3555 178.057 97.34 169.624 97.3607C169.237 98.4295 168.834 99.4881 168.421 100.541C165.566 99.5242 162.752 98.3572 159.788 97.6757C159.535 97.6085 159.029 97.4846 158.776 97.4175C156.194 96.8546 153.55 96.519 150.906 96.612C150.695 96.6274 150.276 96.6584 150.07 96.6739C147.096 96.7772 143.946 97.7841 142.051 100.206C140.636 101.904 140.187 104.192 140.321 106.355C140.326 106.547 140.337 106.923 140.342 107.109C140.91 112.195 145.862 114.813 150.013 116.729C150.137 116.791 150.39 116.91 150.514 116.972C153.256 118.221 156.049 119.363 158.771 120.659C159.029 120.788 159.55 121.041 159.808 121.17C161.058 121.81 162.287 122.492 163.526 123.163C164.048 123.499 164.569 123.845 165.075 124.206C167.962 126.287 170.502 129.018 171.783 132.385C173.42 136.686 173.311 141.458 172.34 145.903C172.258 146.167 172.082 146.693 172 146.957C170.12 152.229 165.679 156.138 160.598 158.234C158.662 159.019 156.617 159.494 154.557 159.814C149.223 160.656 143.786 160.377 138.442 159.762C137.574 159.602 136.707 159.437 135.839 159.282C133.195 158.596 130.598 157.733 128.099 156.633C128.037 152.916 128.083 149.203 128.068 145.485C134.677 148.506 141.88 150.489 149.192 150.422C149.388 150.416 149.781 150.401 149.977 150.396C153.085 150.194 156.375 149.58 158.791 147.458C159.148 147.096 159.493 146.73 159.829 146.353C162.277 143.125 162.282 138.297 159.829 135.075C159.493 134.673 159.137 134.285 158.776 133.908C156.364 131.75 153.411 130.34 150.498 128.987C150.375 128.931 150.122 128.812 149.998 128.75C147.989 127.955 146.053 126.638 143.801 126.767C137.935 126.793 132.064 126.777 126.193 126.783H125.383H123.663C123.405 126.777 122.889 126.777 122.631 126.777C121.928 126.772 121.226 126.772 120.524 126.777C120.328 126.777 119.94 126.783 119.744 126.788C113.31 126.86 106.871 126.855 100.437 126.855C100.267 126.855 99.9209 126.865 99.7454 126.865C96.198 126.845 92.6506 126.855 89.1032 126.845C89.0929 130.883 89.0877 134.92 89.1187 138.958C89.1135 139.16 89.1032 139.557 89.1032 139.759C89.0877 142.976 89.0929 146.193 89.1084 149.409C91.7005 149.384 94.2978 149.394 96.8951 149.44C97.0861 149.44 97.4734 149.435 97.6644 149.435C104.264 149.435 110.863 149.487 117.467 149.508V159.313V159.83C102.312 159.845 87.1565 159.799 72.0066 159.855C68.5418 160.883 65.5211 163.134 62.1338 164.436C59.7482 163.553 57.9254 161.652 56.2318 159.83C56.113 159.706 55.8858 159.453 55.7722 159.329C54.1509 157.372 52.7464 155.249 51.3677 153.122C51.032 152.58 50.6861 152.038 50.3505 151.501C46.9322 145.95 43.4777 140.414 40.0852 134.843C40.0129 134.724 39.8684 134.482 39.8012 134.363C39.0525 133.139 38.2986 131.92 37.5602 130.691C33.7289 130.557 29.9026 130.5 26.0712 130.397C26.0764 136.268 26.0609 142.139 26.0816 148.015C26.0816 148.201 26.0764 148.583 26.0712 148.774C26.0661 152.286 26.0764 155.797 26.0712 159.313V159.83C22.2812 159.84 18.4963 159.886 14.7113 159.861V124.201V123.168C14.7113 112.159 14.7062 101.151 14.7165 90.142C14.7268 89.4346 14.5719 88.7426 14.3809 88.0662C14.9799 87.3536 15.9506 87.5653 16.7665 87.524C23.7993 87.5808 30.8424 87.4879 37.8752 87.5705C39.5689 87.6944 41.2574 87.901 42.9459 88.0714C45.4605 88.5671 47.9752 89.1609 50.3401 90.1781C50.5983 90.2969 51.1147 90.5292 51.3728 90.648C55.5967 92.667 58.9168 96.4725 60.1974 100.985C61.4728 104.827 61.1785 108.911 61.1217 112.887C60.9048 113.486 60.6828 114.085 60.4556 114.679C59.3196 117.912 57.5072 120.922 54.8892 123.168C54.4813 123.519 54.0631 123.86 53.6345 124.19C53.1646 124.536 52.6792 124.857 52.1939 125.177C52.0751 125.249 51.8324 125.399 51.7136 125.471L51.3987 125.672C51.1353 125.817 50.6035 126.117 50.3401 126.266C49.4572 126.721 48.5484 127.129 47.6447 127.542C48.4554 129.179 49.3797 130.753 50.3453 132.297C50.6809 132.876 51.0217 133.444 51.3574 134.017C54.5485 139.521 58.0132 144.86 61.731 150.019C63.12 150.014 64.509 150.003 65.898 150.003C66.0633 150.008 66.3989 150.014 66.5641 150.014C69.843 150.024 73.1219 150.034 76.4059 149.983C76.6176 149.998 77.0411 150.024 77.2528 150.039L77.702 150.086C77.7072 142.681 77.7123 135.277 77.6968 127.872C77.702 127.728 77.702 127.433 77.7072 127.289C77.7123 126.261 77.7072 125.228 77.7072 124.201V123.168C77.702 114.622 77.7175 106.077 77.6968 97.5362C77.702 97.3349 77.7072 96.9424 77.7123 96.741C77.7123 93.8443 77.702 90.9527 77.7072 88.0559V87.5395H117.467V88.0559V97.3452C110.512 97.371 103.556 97.4175 96.6007 97.4175C96.4045 97.4175 96.0224 97.4123 95.8262 97.4123C93.5852 97.4433 91.3442 97.4691 89.1032 97.4485C89.0877 103.965 89.098 110.481 89.098 117.003C91.2513 117.013 93.4045 117.039 95.5577 116.941H96.704C100.608 117.029 104.517 116.951 108.42 116.967C108.596 116.961 108.942 116.956 109.117 116.956C111.245 116.967 113.377 116.972 115.51 116.961C115.706 116.961 116.093 116.967 116.285 116.972C118.402 116.977 120.514 116.967 122.631 116.972H123.663C125.713 116.972 127.768 116.977 129.823 116.956C130.066 116.941 130.552 116.915 130.799 116.905C131.016 116.915 131.46 116.936 131.682 116.946C131.62 116.755 131.502 116.373 131.44 116.182C131.352 115.986 131.166 115.593 131.078 115.397C128.465 110.125 128.156 103.732 130.257 98.2385C132.178 93.3227 136.655 89.8683 141.483 88.0507C142.097 87.8803 142.717 87.7151 143.342 87.5498ZM142.211 89.5172C137.311 91.1385 132.849 94.815 131.3 99.8702C129.88 104.579 130.169 109.851 132.287 114.307C132.354 114.442 132.488 114.72 132.555 114.855C133.309 116.089 134.094 117.302 134.884 118.516C132.875 118.516 130.872 118.562 128.868 118.464C128.662 118.495 128.249 118.562 128.042 118.593C126.581 118.5 125.125 118.511 123.663 118.521H122.631C121.035 118.516 119.44 118.495 117.844 118.583L117.1 118.49C113.987 118.526 110.873 118.578 107.759 118.459C107.574 118.5 107.202 118.583 107.011 118.624C102.627 118.402 98.2273 118.598 93.8434 118.578C93.5645 118.593 93.012 118.629 92.7332 118.645C90.9982 118.521 89.2581 118.542 87.518 118.557V95.9149C89.7745 95.8787 92.031 95.9872 94.2823 95.7961C94.4682 95.8168 94.84 95.8581 95.031 95.8736C101.992 95.8632 108.952 95.8477 115.918 95.7961V89.0886C106.711 89.1041 97.5095 89.0576 88.3028 89.1144C87.6832 89.0679 87.0636 89.0163 86.4491 88.9595L86.2581 89.1299C86.0464 89.1351 85.6229 89.1506 85.4112 89.1557C83.3613 89.0421 81.3062 89.0938 79.2562 89.0886C79.2614 91.1282 79.2046 93.1627 79.3285 95.1971C79.2975 95.3985 79.2356 95.7961 79.2046 95.9975C79.3234 105.054 79.2201 114.111 79.2562 123.163C79.2511 123.421 79.2356 123.943 79.2304 124.201C79.2562 124.934 79.3027 125.672 79.3595 126.406L79.1943 126.994C79.3905 134.698 79.1065 142.408 79.344 150.112C79.3182 150.354 79.2769 150.84 79.2511 151.082L78.869 151.733C78.6573 151.697 78.2338 151.63 78.0221 151.594C74.6761 151.583 71.325 151.47 67.9841 151.671C67.8034 151.63 67.4316 151.552 67.2509 151.511C65.4023 151.583 63.5538 151.604 61.7052 151.563C60.9668 151.743 60.5795 151.041 60.2077 150.571C57.058 146.26 54.2748 141.7 51.3677 137.229C51.2128 136.599 50.6964 136.139 50.3453 135.623C49.2093 133.196 47.6654 130.97 46.3538 128.636C46.2815 128.487 46.137 128.182 46.0647 128.032C45.9046 127.722 45.5845 127.108 45.4296 126.798C46.5862 126.302 47.7738 125.869 48.8685 125.239C49.9632 124.774 50.9804 124.139 51.9254 123.416C52.0338 123.256 52.2455 122.936 52.3539 122.776C54.4555 122.027 56.0407 120.06 56.965 118.087C57.4607 117.555 57.7912 116.905 58.0545 116.239C59.9599 112.51 59.8876 108.101 59.3403 104.047C58.6638 99.2144 55.7774 94.6446 51.3625 92.4191C51.0992 92.29 50.5777 92.0318 50.3195 91.9028V91.7788C45.2695 89.6979 39.7651 89.0628 34.3433 89.0886C28.2451 89.1144 22.1469 89.037 16.0539 89.1299L16.2759 89.3674C16.2914 89.5843 16.3172 90.0129 16.3327 90.2246C16.1623 101.202 16.3121 112.185 16.2604 123.168V124.201C16.3224 135.385 16.1417 146.575 16.3482 157.754C16.2966 157.94 16.1985 158.301 16.1468 158.482L16.4928 158.198C19.1624 158.43 21.8474 158.275 24.5222 158.27C24.4912 155.626 24.5945 152.978 24.4499 150.334C24.4809 150.132 24.548 149.73 24.579 149.528C24.4447 142.625 24.5583 135.716 24.5222 128.812C29.1333 128.905 33.7392 129.07 38.3451 129.106C39.2539 130.475 40.0439 131.926 41.0457 133.232V133.872L41.2161 133.717C44.2574 138.602 47.149 143.59 50.3453 148.377C50.4795 149.007 50.9959 149.446 51.3677 149.941C53.1285 153.313 55.385 156.442 57.8377 159.355C57.9874 159.468 58.2921 159.695 58.4418 159.804C59.4694 161.043 60.7654 162.009 62.1544 162.809C64.0185 161.771 66.0065 160.971 67.8189 159.835C68.0719 159.706 68.5779 159.458 68.8309 159.329C69.905 158.993 70.8654 158.239 72.0375 158.281C76.2614 158.229 80.4903 158.368 84.709 158.219C84.9207 158.229 85.3493 158.255 85.561 158.27C85.7933 158.286 86.2529 158.312 86.4853 158.322C86.7486 158.353 87.2805 158.415 87.549 158.441L87.9672 158.219H88.8244C97.8503 158.358 106.887 158.239 115.918 158.281V151.057C109.309 151.01 102.704 150.984 96.0947 150.979C95.9088 151 95.537 151.036 95.3511 151.051C92.7435 150.85 90.1308 150.99 87.518 150.938V125.316C92.0361 125.29 96.5491 125.306 101.067 125.306C101.253 125.285 101.625 125.239 101.816 125.213C108.312 125.456 114.813 125.197 121.309 125.213C122.398 125.099 123.488 125.182 124.577 125.234C131.156 125.228 137.734 125.244 144.313 125.223C146.399 125.053 148.108 126.452 150.039 126.984C150.153 127.077 150.385 127.263 150.498 127.361C153.442 128.461 156.153 130.092 158.791 131.791C159.122 132.106 159.468 132.411 159.834 132.695C162.153 135.07 163.573 138.354 163.16 141.716C163.056 144.416 161.621 146.781 159.839 148.723C159.571 148.909 159.039 149.28 158.771 149.466C156.571 150.943 153.958 151.47 151.402 151.945C151.221 151.934 150.86 151.914 150.679 151.898C143.471 152.311 136.299 150.576 129.648 147.886C129.591 150.468 129.601 153.055 129.643 155.642C133.18 157.098 136.918 158.028 140.724 158.425C145.991 158.967 151.381 159.05 156.561 157.805C156.731 157.759 157.067 157.671 157.232 157.63C157.619 157.527 158.394 157.32 158.776 157.217V156.995C159.029 156.953 159.54 156.866 159.793 156.824C160.991 156.324 162.204 155.787 163.185 154.904C164.012 154.614 164.735 154.114 165.344 153.489C166.883 151.945 168.638 150.509 169.562 148.485C171.68 144.551 171.845 139.821 171.081 135.499C170.177 130.531 166.433 126.473 162.049 124.211C160.975 123.53 159.845 122.946 158.693 122.404C156.065 120.958 153.24 119.863 150.468 118.727C150.354 118.64 150.127 118.464 150.013 118.371C145.366 116.461 140.337 113.615 138.901 108.421L138.917 107.734C138.323 104.398 139.133 100.681 141.679 98.3211C144.302 95.6877 148.165 95.0939 151.717 94.9803C151.918 94.9699 152.321 94.9493 152.523 94.9441C154.619 95.192 156.715 95.4398 158.802 95.7754C159.055 95.8581 159.555 96.0181 159.803 96.0956C162.478 96.6688 165.013 97.686 167.611 98.5173L167.791 97.6395C167.858 97.4846 168.003 97.1696 168.075 97.0147C168.179 96.7152 168.38 96.1162 168.483 95.8168C177.298 95.7755 186.107 95.8116 194.921 95.8013H195.954H201.117C201.164 102.942 201.024 110.089 201.189 117.23C201.159 117.437 201.097 117.844 201.06 118.051C201.143 119.755 201.117 121.459 201.117 123.168V124.201C201.112 126.091 201.153 127.981 201.06 129.865C201.091 130.072 201.159 130.48 201.189 130.681C201.024 139.877 201.164 149.074 201.117 158.27C203.869 158.317 206.622 158.327 209.379 158.312C209.41 151.836 209.312 145.361 209.425 138.886C209.4 138.69 209.338 138.292 209.307 138.091C209.467 133.464 209.338 128.833 209.379 124.201V123.168C209.332 118.727 209.472 114.282 209.301 109.841C209.338 109.639 209.4 109.232 209.431 109.03C209.317 104.62 209.41 100.211 209.379 95.8013C213.82 95.8323 218.26 95.7341 222.696 95.8581C222.908 95.8271 223.321 95.76 223.527 95.729C225.691 95.8581 227.859 95.7858 230.028 95.8013C230.028 93.6326 230.08 91.469 229.961 89.3055L230.24 88.9802C230.049 89.0266 229.672 89.1247 229.486 89.1764C218.312 88.975 207.128 89.1454 195.954 89.0886H194.921C183.535 88.9957 172.144 89.2848 160.769 88.9389C159.989 88.5774 159.08 88.6549 158.249 88.5826C152.936 87.7099 147.359 87.8235 142.211 89.5172Z" fill="#2B2B2B"></path><path d="M152.681 80.5062C149.143 80.433 145.48 80.7494 141.773 81.7601C141.769 81.7611 141.765 81.7609 141.761 81.762C141.144 81.9253 140.517 82.0927 139.879 82.2698C139.706 82.3175 139.536 82.3729 139.369 82.4358C133.34 84.7057 127.392 89.0832 124.668 96.055C124.662 96.0686 124.657 96.0823 124.652 96.096C122.826 100.872 122.522 106.025 123.457 110.973H122.644C120.502 110.968 118.394 110.978 116.308 110.973H116.299C116.05 110.967 115.779 110.961 115.51 110.961C115.499 110.961 115.489 110.961 115.478 110.961C113.375 110.972 111.265 110.968 109.148 110.957C109.138 110.957 109.127 110.957 109.117 110.957C108.902 110.957 108.675 110.962 108.445 110.967C104.446 110.951 100.573 111.028 96.8396 110.944C96.7941 110.942 96.7485 110.942 96.7029 110.942H95.5584C95.4672 110.942 95.376 110.944 95.2849 110.948C95.227 110.95 95.1576 110.947 95.0994 110.95C95.0983 108.437 95.1001 105.925 95.1013 103.416C95.34 103.413 95.5881 103.416 95.826 103.412C95.9161 103.412 96.2991 103.418 96.6013 103.418C103.583 103.418 110.545 103.372 117.488 103.346C119.076 103.34 120.596 102.705 121.717 101.581C122.837 100.456 123.466 98.9335 123.467 97.346V88.0569V87.5394C123.466 85.9481 122.834 84.4221 121.709 83.2969C120.584 82.1717 119.058 81.5395 117.467 81.5394H77.7068C76.1156 81.5395 74.5895 82.1717 73.4643 83.2969C72.3392 84.4221 71.707 85.9481 71.7068 87.5394V88.0569C71.7016 90.9541 71.7125 93.8278 71.7127 96.6898C71.7066 96.9642 71.7013 97.2909 71.699 97.3812C71.6975 97.4378 71.6969 97.4944 71.697 97.5511C71.7177 106.075 71.7016 114.616 71.7068 123.172V124.201C71.7068 125.248 71.7117 126.272 71.7068 127.26C71.7022 127.474 71.6972 127.759 71.7009 127.657C71.6982 127.733 71.6969 127.809 71.697 127.885C71.7083 133.252 71.7016 138.625 71.699 143.998C69.9945 144.002 68.3062 144.019 66.5818 144.014C66.5759 144.014 66.5701 144.014 66.5642 144.014C66.5443 144.014 66.1448 144.008 66.0799 144.006C66.0193 144.005 65.9588 144.004 65.8982 144.004C65.5856 144.004 65.2866 144.007 64.9763 144.008C62.022 139.769 59.1399 135.478 56.5486 131.008C56.5441 131 56.5395 130.992 56.5349 130.985C56.3083 130.598 56.1074 130.26 55.9002 129.909C56.3025 129.642 56.71 129.376 57.1912 129.022C57.226 128.996 57.2605 128.97 57.2947 128.944C57.8093 128.547 58.3101 128.141 58.7966 127.723L58.8025 127.717C62.3889 124.638 64.7063 120.683 66.117 116.668C66.3382 116.087 66.5548 115.506 66.7634 114.93C66.9906 114.302 67.1114 113.641 67.1209 112.973C67.1737 109.273 67.6306 104.502 65.9314 99.2562C64.131 93.0202 59.698 87.9771 53.9607 85.2347C53.9341 85.2221 53.9074 85.2097 53.8806 85.1976C53.5599 85.0499 53.0441 84.8173 52.8474 84.7269C52.8021 84.7061 52.7565 84.6859 52.7107 84.6663C49.7062 83.374 46.7672 82.7106 44.1052 82.1858C43.9211 82.1492 43.7354 82.1211 43.5486 82.1019C41.9446 81.94 40.2006 81.7244 38.3123 81.5862C38.1901 81.5773 38.0676 81.5721 37.9451 81.5706C30.8124 81.4868 23.7618 81.5799 16.8142 81.5237C16.697 81.5229 16.5798 81.5255 16.4627 81.5316C16.6916 81.52 16.1372 81.4511 14.9041 81.5726C13.6709 81.694 11.3019 82.403 9.78689 84.2054C9.15707 84.9551 8.7203 85.8476 8.51467 86.8049C8.30904 87.7622 8.34081 88.7553 8.6072 89.6976C8.73791 90.1605 8.71329 90.2801 8.71657 90.055C8.71639 90.0823 8.71639 90.1097 8.71657 90.137C8.70627 101.152 8.71071 112.161 8.71071 123.168V124.201V159.862C8.71084 161.446 9.33766 162.966 10.4544 164.09C11.5712 165.214 13.0872 165.851 14.6717 165.862C18.5317 165.887 22.3357 165.84 26.0877 165.83C27.6759 165.826 29.1974 165.191 30.3188 164.067C31.4402 162.942 32.0699 161.419 32.0701 159.83V159.323V159.313C32.0753 155.79 32.0651 152.29 32.0701 148.807C32.0701 148.799 32.0701 148.791 32.0701 148.784C32.0758 148.528 32.0818 148.264 32.0818 148.016C32.0818 148.009 32.0818 148.002 32.0818 147.994C32.0684 144.191 32.0725 140.37 32.074 136.553C32.7618 136.569 33.4567 136.588 34.1404 136.606C34.3067 136.877 34.4801 137.162 34.6443 137.43C34.6571 137.451 34.6706 137.474 34.6834 137.494C34.7832 137.666 34.8815 137.835 34.9568 137.959C34.9581 137.961 34.9594 137.963 34.9607 137.965C38.3759 143.573 41.8361 149.116 45.242 154.647C45.2484 154.659 45.2549 154.67 45.2615 154.682C45.6175 155.252 45.9603 155.786 46.2674 156.282C46.2885 156.316 46.31 156.351 46.3318 156.385C47.731 158.544 49.2568 160.869 51.1521 163.157C51.2153 163.234 51.2805 163.309 51.3474 163.383C51.4003 163.441 51.5939 163.658 51.8377 163.916C51.8414 163.92 51.8476 163.926 51.8513 163.93C53.5887 165.8 55.9776 168.555 60.0506 170.063C61.4188 170.57 62.9248 170.561 64.2869 170.037C68.4178 168.45 71.1377 166.614 73.1892 165.856C87.9274 165.806 102.689 165.845 117.472 165.83C118.962 165.829 120.399 165.273 121.501 164.272C122.604 163.27 123.295 161.893 123.439 160.41C124.04 161.152 124.808 161.74 125.681 162.125C128.524 163.377 131.428 164.337 134.332 165.09C134.481 165.129 134.631 165.162 134.783 165.19C135.606 165.337 136.463 165.498 137.353 165.662C137.487 165.687 137.621 165.707 137.756 165.723C143.352 166.367 149.332 166.711 155.486 165.741H155.492C157.843 165.375 160.338 164.814 162.851 163.795C162.863 163.791 162.875 163.786 162.886 163.782C169.259 161.153 175.081 156.177 177.65 148.973C177.678 148.895 177.705 148.816 177.73 148.737C177.76 148.639 177.936 148.114 178.07 147.684C178.121 147.519 178.165 147.352 178.201 147.184C179.343 141.956 179.583 136.014 177.39 130.252V130.25C175.555 125.428 172.136 121.901 168.584 119.34C168.575 119.334 168.567 119.328 168.558 119.323C167.943 118.883 167.344 118.485 166.773 118.117C166.646 118.036 166.516 117.959 166.383 117.887C165.18 117.236 163.912 116.531 162.543 115.83C162.525 115.821 162.508 115.812 162.49 115.803C162.149 115.632 161.628 115.381 161.453 115.293C161.419 115.276 161.384 115.259 161.349 115.242C158.438 113.856 155.628 112.708 153.039 111.53C153.027 111.524 153.012 111.518 153 111.512C152.864 111.446 152.665 111.349 152.695 111.364C152.64 111.335 152.584 111.308 152.527 111.282C150.571 110.379 148.75 109.399 147.683 108.506C146.654 107.645 146.419 107.21 146.328 106.512C146.325 106.397 146.32 106.269 146.318 106.2C146.316 106.128 146.313 106.056 146.308 105.985C146.242 104.908 146.542 104.189 146.66 104.047C146.699 104 146.737 103.953 146.775 103.905C147.179 103.389 148.508 102.732 150.277 102.67C150.358 102.667 150.439 102.663 150.519 102.657C150.668 102.645 150.929 102.626 151.144 102.61C153.126 102.543 155.257 102.796 157.472 103.278C157.796 103.361 158.169 103.454 158.248 103.475C158.313 103.492 158.378 103.509 158.443 103.524C160.758 104.056 163.358 105.108 166.406 106.194C167.762 106.677 169.246 106.656 170.588 106.136C171.93 105.616 173.04 104.63 173.717 103.36C180.327 103.351 186.942 103.352 193.568 103.35V118.795C193.568 118.778 193.56 119.133 193.558 119.5C193.558 119.516 193.559 119.53 193.558 119.545C193.558 119.55 193.558 119.55 193.558 119.555C193.548 120.827 193.563 122.044 193.568 123.194V124.201C193.568 125.542 193.553 126.932 193.558 128.373C193.558 128.419 193.559 128.465 193.56 128.51C193.563 128.596 193.568 129.031 193.568 129.117V159.313V159.83C193.568 161.422 194.2 162.948 195.326 164.073C196.451 165.198 197.977 165.83 199.568 165.83C203.272 165.83 207.091 165.91 211.033 165.84C212.606 165.812 214.105 165.168 215.207 164.046C216.31 162.924 216.928 161.413 216.928 159.84V159.319V159.313C216.933 153.008 216.917 146.719 216.937 140.45C216.937 140.392 216.937 140.335 216.935 140.278C216.933 140.2 216.928 139.864 216.922 139.582C216.927 134.455 216.928 129.325 216.928 124.201V123.168V108.293C216.928 108.199 216.933 107.762 216.935 107.666C216.937 107.609 216.937 107.552 216.937 107.494C216.933 106.114 216.935 104.737 216.933 103.358C218.335 103.36 219.734 103.357 221.138 103.362C221.198 103.362 221.257 103.361 221.316 103.36C221.392 103.358 221.726 103.352 222.004 103.346C225.009 103.346 228.032 103.355 231.076 103.35C231.092 103.35 231.108 103.35 231.125 103.35L231.64 103.346C233.221 103.33 234.732 102.691 235.845 101.568C236.958 100.444 237.582 98.9272 237.582 97.346V87.5394C237.582 85.9491 236.95 84.424 235.826 83.299C234.702 82.174 233.178 81.5411 231.588 81.5394C208.389 81.5136 185.209 81.5901 162.056 81.4983C159.069 81.0134 155.947 80.5737 152.681 80.5062ZM34.3689 95.0882H34.3709C39.0777 95.0658 43.5349 95.6751 47.4353 97.1663C47.5024 97.2021 47.5701 97.2366 47.6384 97.2698C47.9073 97.4041 48.3658 97.6322 48.6619 97.7776H48.6638C51.0654 98.989 52.9673 101.846 53.3943 104.867C53.8707 108.412 53.7144 111.546 52.7107 113.51C52.6236 113.681 52.5448 113.855 52.4744 114.033C52.3515 114.344 52.3167 114.275 52.5759 113.996C52.1492 114.454 51.7967 114.975 51.531 115.541C51.0748 116.515 50.2109 117.171 50.3396 117.125C49.2962 117.497 48.3762 118.151 47.6814 119.014C47.2805 119.277 46.8639 119.572 46.5232 119.717C46.3008 119.811 46.0842 119.919 45.8748 120.039C45.3759 120.326 44.4257 120.7 43.0642 121.283C41.9906 121.744 41.0749 122.509 40.4295 123.483C39.7774 123.24 39.0881 123.112 38.3924 123.106C33.8985 123.071 29.316 122.907 24.6424 122.813C23.8262 122.797 23.0154 122.948 22.2595 123.256V123.198V123.168C22.3036 113.735 22.2478 104.407 22.322 95.1155C26.3179 95.1099 30.2931 95.1054 34.3689 95.0882ZM161.248 116.975L161.586 117.147C161.545 117.124 161.51 117.116 161.469 117.094C161.397 117.06 161.319 117.008 161.248 116.975ZM63.6345 118.446L63.3963 118.969C63.4115 118.939 63.4144 118.909 63.4295 118.879C63.4872 118.742 63.5844 118.573 63.6345 118.446ZM164.801 118.879L165.261 119.145C165.159 119.08 165.065 119.046 164.963 118.983C164.907 118.953 164.857 118.908 164.801 118.879ZM144.144 132.758C143.895 132.772 145.116 133.26 147.49 134.201C147.676 134.292 147.85 134.374 148.011 134.448L147.97 134.43C150.786 135.738 153.092 136.933 154.658 138.299C154.803 138.455 154.942 138.607 155.064 138.748C155.734 139.668 155.736 141.715 155.066 142.664C154.969 142.769 154.87 142.874 154.769 142.979C153.935 143.679 152.148 144.239 149.603 144.407C149.421 144.412 149.254 144.418 149.136 144.422H149.133C142.943 144.478 136.574 142.776 130.562 140.028C129.646 139.609 128.64 139.428 127.635 139.501C126.631 139.573 125.661 139.898 124.815 140.444C123.968 140.99 123.273 141.74 122.793 142.626C122.313 143.511 122.064 144.503 122.068 145.51C122.068 145.559 122.068 145.611 122.068 145.66C121.507 144.989 120.807 144.449 120.015 144.077C119.224 143.706 118.361 143.511 117.486 143.508C110.901 143.487 104.295 143.436 97.6638 143.436C97.3681 143.436 96.9806 143.44 96.8943 143.44L97.0017 143.442C96.369 143.43 95.7378 143.441 95.1052 143.434C95.1057 142.22 95.0975 141.002 95.1033 139.789C95.1033 139.78 95.1033 139.77 95.1033 139.76C95.1033 139.762 95.1117 139.317 95.117 139.114C95.1187 139.047 95.1194 138.979 95.1189 138.912C95.1035 136.902 95.1123 134.876 95.1111 132.858C96.6427 132.859 98.1897 132.857 99.7107 132.866C99.7224 132.866 99.7342 132.866 99.7459 132.866C100.149 132.866 100.502 132.856 100.437 132.856C106.868 132.856 113.328 132.86 119.81 132.787C119.839 132.788 119.868 132.788 119.896 132.787C120.013 132.784 120.45 132.778 120.523 132.778C120.538 132.778 120.552 132.778 120.566 132.778C121.24 132.773 121.913 132.773 122.588 132.778C122.602 132.778 122.616 132.778 122.631 132.778C122.889 132.778 123.451 132.78 123.523 132.782C123.569 132.783 123.616 132.783 123.662 132.784H125.383H126.193C126.195 132.784 126.197 132.784 126.199 132.784C132.055 132.778 137.933 132.794 143.828 132.768C143.933 132.767 144.039 132.764 144.144 132.758ZM175.019 150.977L174.845 151.33C174.888 151.252 174.902 151.169 174.943 151.09C174.966 151.042 174.997 151.025 175.019 150.977Z" fill="#2B2B2B"></path><path d="M24.6658 92.7888C23.8454 92.7481 23.044 93.0455 22.4489 93.6118C21.8538 94.1781 21.5169 94.9636 21.5169 95.7851C21.5169 96.0079 21.5156 96.3471 21.5143 96.6957V96.7018C21.513 97.0433 21.5117 97.3932 21.5117 97.6285C21.5117 97.6548 21.5121 97.6812 21.5128 97.7075C21.5149 97.7889 21.5172 97.9211 21.5199 98.0757L21.5201 98.0873C21.5223 98.21 21.5247 98.3475 21.5272 98.4549C21.5221 106.529 21.5221 114.609 21.5221 122.682C21.5221 123.516 21.8695 124.313 22.481 124.881C23.0925 125.448 23.9128 125.736 24.7449 125.674C26.3981 125.551 28.1209 125.546 29.9671 125.555C30.1457 125.556 30.3257 125.557 30.5068 125.558C32.1609 125.566 33.9138 125.576 35.6516 125.493C39.5199 125.31 43.6871 124.665 47.5258 122.297C47.5858 122.26 47.6446 122.221 47.7019 122.18L47.7169 122.169C47.8728 122.057 48.0752 121.912 48.278 121.755L48.3092 121.73C50.6731 119.85 52.2565 117.314 53.1952 114.694C53.2333 114.588 53.2653 114.479 53.2912 114.369C54.1463 110.736 54.1477 106.934 53.2663 103.29C53.2375 103.171 53.2016 103.054 53.1586 102.94C51.6287 98.8689 48.264 95.7274 44.1663 94.4066C40.743 93.259 37.281 92.9578 34.0253 92.879C32.6489 92.8456 31.2653 92.852 29.9338 92.8581C29.6916 92.8592 29.4511 92.8603 29.2127 92.8612C27.6408 92.8668 26.1376 92.862 24.6658 92.7888ZM45.906 105.424C47.0564 109.382 46.2853 113.63 43.6738 115.806C43.5902 115.852 43.5081 115.897 43.4285 115.94L43.4251 115.942C43.2662 116.03 43.117 116.111 42.9693 116.191C42.7315 116.32 42.5176 116.477 42.3299 116.655C40.1679 117.457 37.8259 117.79 35.2558 117.923C33.7832 118 32.2872 118.009 30.7158 118.016L30.6191 118.017C30.1136 118.019 29.5999 118.022 29.081 118.027C29.0815 116.382 29.0757 114.748 29.0698 113.121C29.0545 108.872 29.0394 104.668 29.1385 100.416C29.5554 100.417 29.9683 100.417 30.3759 100.417C30.5105 100.417 30.6443 100.417 30.7776 100.417C32.0859 100.415 33.3359 100.413 34.5775 100.454C37.3081 100.544 39.7704 100.837 42.0484 101.681C42.0661 101.687 42.0839 101.694 42.1018 101.7C43.9781 102.355 45.4261 103.789 45.906 105.424Z" fill="#2B2B2B"></path><path d="M24.8145 89.7925C23.1751 89.7112 21.5703 90.3071 20.3809 91.439C19.1918 92.5705 18.5176 94.143 18.5176 95.7847C18.5176 95.9958 18.515 96.3343 18.5137 96.6831C18.5137 96.687 18.5137 96.6909 18.5137 96.6949V96.7007C18.5124 97.0383 18.5117 97.3852 18.5117 97.6284C18.5117 97.6852 18.5124 97.7374 18.5137 97.7867C18.5151 97.8414 18.5168 97.9746 18.5195 98.1284L18.5215 98.1382V98.1402C18.5237 98.2612 18.5245 98.4011 18.5273 98.523V98.5249C18.5223 106.576 18.5215 114.632 18.5215 122.681C18.5215 124.348 19.2178 125.945 20.4395 127.08L20.4414 127.082C21.6624 128.214 23.3045 128.79 24.9688 128.666C26.4731 128.554 28.1211 128.545 29.9512 128.554C30.1299 128.555 30.3091 128.557 30.4902 128.558H30.4922C32.1438 128.566 33.9484 128.578 35.793 128.49C39.8913 128.296 44.6431 127.599 49.0996 124.851L49.1016 124.849C49.2171 124.778 49.333 124.7 49.4473 124.619C49.4538 124.614 49.4603 124.61 49.4668 124.605L49.4766 124.599L49.4902 124.587C49.6434 124.477 49.8649 124.32 50.1152 124.126C50.1283 124.116 50.1414 124.106 50.1543 124.095L50.1758 124.078C53.0568 121.786 54.9248 118.757 56.0176 115.709C56.0962 115.49 56.16 115.272 56.2109 115.056C57.1728 110.97 57.1753 106.692 56.1816 102.584C56.1249 102.349 56.0537 102.115 55.9668 101.884L55.9648 101.88C54.106 96.9377 50.0582 93.1612 45.1055 91.5581C41.2591 90.271 37.4827 89.9623 34.0977 89.8804C32.6632 89.8456 31.2513 89.8509 29.9199 89.857C29.6777 89.8581 29.438 89.86 29.2012 89.8609C27.6422 89.8664 26.1915 89.861 24.8145 89.7925ZM24.5176 95.7847C26.0841 95.8626 27.6378 95.8665 29.2227 95.8609H29.2246C29.4646 95.86 29.7051 95.8581 29.9473 95.857C31.2789 95.8509 32.6348 95.8465 33.9531 95.8784C37.0754 95.954 40.2175 96.2474 43.2129 97.2515C43.2239 97.2548 43.235 97.2581 43.2461 97.2613C46.4782 98.303 49.1504 100.804 50.3496 103.996C51.1186 107.175 51.119 110.5 50.3711 113.679V113.681C49.5864 115.871 48.2874 117.914 46.4414 119.382C46.4388 119.384 46.4362 119.386 46.4336 119.388C46.2894 119.5 46.1229 119.62 45.9668 119.732C45.9635 119.735 45.9603 119.737 45.957 119.74C45.957 119.74 45.9548 119.741 45.9512 119.744C42.731 121.73 39.1473 122.324 35.5098 122.496H35.5078C33.8781 122.573 32.1788 122.566 30.5234 122.558C30.3424 122.557 30.1629 122.555 29.9844 122.554H29.9824C28.1217 122.545 26.3225 122.547 24.5215 122.681C24.5215 114.608 24.5222 106.53 24.5273 98.4566C24.5276 98.4325 24.5276 98.4084 24.5273 98.3843C24.5252 98.2923 24.5217 98.1579 24.5195 98.0347V98.0327V98.023C24.5168 97.8685 24.5145 97.7391 24.5117 97.6304V97.6284V97.6265C24.5117 97.4022 24.5124 97.053 24.5137 96.7124V96.7066V96.6949C24.515 96.3511 24.5176 96.0162 24.5176 95.7847ZM29.1523 97.4156C28.3664 97.4118 27.6104 97.7167 27.0468 98.2645C26.4832 98.8124 26.1572 99.5595 26.1387 100.345C26.0383 104.651 26.055 108.883 26.0703 113.132C26.0762 114.759 26.0806 116.388 26.0801 118.025C26.0798 118.422 26.1582 118.814 26.3107 119.18C26.4632 119.546 26.6868 119.879 26.9685 120.158C27.2502 120.437 27.5844 120.658 27.9519 120.807C28.3194 120.956 28.7128 121.031 29.1094 121.027C29.6208 121.022 30.1292 121.019 30.6309 121.017C30.6374 121.017 30.6439 121.017 30.6504 121.017L30.7285 121.015C32.3022 121.008 33.8446 121.001 35.4102 120.919C38.1444 120.778 40.8026 120.422 43.373 119.468C43.7531 119.327 44.1005 119.111 44.3945 118.832L44.3984 118.83L44.4004 118.828C44.5413 118.751 44.6922 118.669 44.8535 118.58L44.8789 118.566L44.8828 118.564C44.9631 118.52 45.0422 118.477 45.1191 118.435C45.2874 118.342 45.4463 118.234 45.5938 118.111C49.4573 114.892 50.1984 109.441 48.7871 104.585C48.7871 104.585 48.7858 104.582 48.7852 104.58C47.9795 101.835 45.7991 99.8125 43.0898 98.8667C40.3638 97.8567 37.5617 97.5496 34.6758 97.4546C33.3652 97.4115 32.0818 97.4138 30.7734 97.4156C30.6401 97.4158 30.5062 97.4174 30.373 97.4175C29.9674 97.4179 29.5602 97.4174 29.1523 97.4156ZM32.1211 103.429C32.9167 103.432 33.7308 103.428 34.4785 103.453C37.0538 103.537 39.1759 103.816 41.0059 104.494C41.0324 104.503 41.0591 104.512 41.0859 104.521C41.0109 104.496 41.0321 104.505 41.1484 104.544L41.1133 104.533C42.1559 104.897 42.8725 105.742 43.0273 106.267V106.269C43.8923 109.255 43.1379 112.198 41.8379 113.39C41.739 113.444 41.6419 113.498 41.541 113.552L41.5391 113.554C41.3625 113.65 41.2261 113.789 41.0625 113.9C39.3573 114.499 37.4127 114.808 35.1016 114.927H35.0996C34.1507 114.977 33.1057 114.978 32.0742 114.988C32.0723 114.363 32.0726 113.731 32.0703 113.109C32.0586 109.851 32.0816 106.645 32.1211 103.429Z" fill="#2B2B2B"></path></g></svg> 