<svg xmlns="http://www.w3.org/2000/svg" width="16" height="16" fill="none" viewBox="0 0 16 16"><g clip-path="url(#a)"><path fill="#fc6d26" fill-rule="evenodd" d="M0 0c3.22.01 4.967.573 8 2C11.033.573 12.78.01 16 0v14c-3.233.033-4.978.611-8 2-3.022-1.389-4.767-1.967-8-2zm13.007 6.92.014.038a2.624 2.624 0 0 1-.871 3.032l-.006.005-2.165 1.62-1.067.806-.648.49a.44.44 0 0 1-.528 0l-.648-.49-1.067-.805-2.15-1.612-.012-.01-.005-.003a2.624 2.624 0 0 1-.87-3.033l.014-.036L4.41 3.234a.37.37 0 0 1 .308-.232.374.374 0 0 1 .398.27l.954 2.92h3.863l.954-2.92a.373.373 0 0 1 .706-.038z" clip-rule="evenodd"/></g><defs><clipPath id="a"><path fill="#fff" d="M0 0h16v16H0z"/></clipPath></defs></svg>