<svg role="img" viewBox="0 0 24 24" xmlns="http://www.w3.org/2000/svg" id="Pipx--Streamline-Simple-Icons" height="24" width="24">
  <desc>
    Pipx Streamline Icon: https://streamlinehq.com
  </desc>
  <title>pipx</title>
  <path d="M17.801 0c-0.005 -0.001 -0.011 0.004 -0.02 0.017a34.051 34.051 0 0 0 -1.451 2.245l0.231 -0.662a0.034 0.034 0 0 0 -0.058 -0.033l-0.52 0.648a0.104 0.104 0 0 0 -0.042 0.004l0.353 -0.727a0.037 0.037 0 0 0 -0.061 -0.04l-1.073 1.23c-0.053 0.016 -0.076 0.014 -0.07 -0.007 0.313 -0.871 0.874 -1.732 1.345 -2.53a0.05 0.05 0 0 0 0.008 -0.028c0 -0.01 -0.002 -0.02 -0.005 -0.027 -0.013 -0.027 -0.029 -0.029 -0.047 -0.005 -0.143 0.192 -0.422 0.71 -0.602 0.817a0.031 0.031 0 0 1 -0.047 -0.025c0 -0.005 0 -0.01 0.003 -0.013l0.123 -0.281a0.024 0.024 0 0 0 -0.025 -0.034 0.025 0.025 0 0 0 -0.017 0.009c-0.417 0.53 -0.75 1.137 -1.099 1.714 -0.225 0.373 -0.637 0.983 -0.902 1.515L11.13 8.52l-0.934 1.756C9.44 9.075 8.838 7.75 8.15 6.503c-0.15 -0.273 -0.353 -0.59 -0.518 -0.89a0.025 0.025 0 0 0 -0.024 -0.014H7.59a0.016 0.016 0 0 0 -0.015 0.021l0.154 0.409a0.057 0.057 0 0 1 -0.008 0.053l-0.082 0.107a0.077 0.077 0 0 0 -0.013 0.07l0.15 0.505c0.022 0.073 0.014 0.077 -0.024 0.01 -0.295 -0.515 -0.566 -1.099 -0.845 -1.646 -0.008 -0.017 -0.018 -0.018 -0.03 -0.004 -0.009 0.011 -0.01 0.023 -0.003 0.037 0.211 0.43 0.38 0.816 0.504 1.16 0.003 0.006 0 0.01 -0.007 0.01h-0.019a0.012 0.012 0 0 1 -0.01 -0.007l-0.387 -0.746a0.037 0.037 0 0 0 -0.07 0.015 0.207 0.207 0 0 0 0.07 0.174c0.01 0.008 0.007 0.024 -0.005 0.027l-0.024 0.008a0.035 0.035 0 0 1 -0.041 -0.015l-0.261 -0.432a0.044 0.044 0 0 0 -0.076 0.002 0.043 0.043 0 0 0 -0.003 0.032l0.46 1.592c0.005 0.017 -0.001 0.025 -0.019 0.025 -0.019 0 -0.035 -0.015 -0.048 -0.042l-0.47 -1.017a0.027 0.027 0 0 0 -0.051 0.017c0.06 0.335 0.166 0.55 0.177 0.975 0.004 0.132 0.087 0.377 0.248 0.735 0.047 0.106 0.061 0.23 0.106 0.337a0.009 0.009 0 0 1 -0.016 0.008c-0.302 -0.554 -0.496 -1.088 -0.902 -1.61a0.034 0.034 0 0 0 -0.06 0.031c0.065 0.203 0.096 0.38 0.192 0.592 0.125 0.277 0.103 0.564 0.206 0.814 0.05 0.122 0.106 0.242 0.168 0.36a125.973 125.973 0 0 0 2.19 4.587c0.02 0.039 0.015 0.095 0.016 0.137l-0.34 0.53 -1.024 1.834 -0.86 1.58 -0.339 0.614a0.024 0.024 0 0 0 0.035 0.032l0.176 -0.118c0.037 -0.026 0.05 -0.017 0.035 0.027a3.048 3.048 0 0 1 -0.295 0.659c-0.018 0.029 -0.01 0.04 0.024 0.033l0.173 -0.035c0.003 0.155 -0.192 0.464 -0.257 0.64 -0.01 0.024 0.01 0.05 0.037 0.046a0.036 0.036 0 0 0 0.024 -0.015l0.482 -0.714c0.121 0.169 -0.044 0.328 -0.094 0.486a0.044 0.044 0 0 0 0.072 0.044l0.322 -0.31c0.026 -0.024 0.046 -0.02 0.058 0.014l0.018 0.05a0.045 0.045 0 0 0 0.082 0.01l0.194 -0.31a0.034 0.034 0 0 1 0.06 0.028l-0.306 0.876a0.031 0.031 0 0 0 0.054 0.031l0.906 -1.054a4.227 4.227 0 0 1 -0.462 0.956 0.037 0.037 0 0 0 -0.007 0.022 0.05 0.05 0 0 0 0.007 0.024c0.013 0.022 0.027 0.023 0.043 0.001 0.246 -0.345 0.481 -0.698 0.707 -1.057a0.296 0.296 0 0 1 0.117 -0.087l0.016 0.15c0.005 0.053 0.021 0.057 0.048 0.012 0.176 -0.295 0.396 -0.556 0.57 -0.838 0.317 -0.517 0.675 -1.007 1.074 -1.47 0.02 -0.024 0.037 -0.022 0.05 0.004l0.11 0.202c0.264 0.588 0.538 1.185 0.864 1.768 0.405 0.722 0.911 1.815 1.38 2.683 0.188 0.347 0.377 0.693 0.568 1.04 0.33 0.6 0.617 1.26 0.936 1.888 0.16 0.336 0.348 0.716 0.67 0.792 0.031 0.007 0.041 -0.004 0.03 -0.034l-0.687 -1.839c0.275 0.221 0.502 0.47 0.682 0.747 0.02 0.032 0.042 0.05 0.065 0.051a0.042 0.042 0 0 0 0.045 -0.048l-0.173 -1.104c-0.01 0.027 -0.01 0.027 0 0l0.11 -0.156c0.093 0.13 0.228 0.224 0.314 0.365 0.227 0.378 0.495 0.72 0.805 1.024a0.05 0.05 0 0 0 0.082 -0.023 0.048 0.048 0 0 0 0 -0.023c-0.174 -0.731 -0.567 -1.452 -0.783 -2.215 -0.05 -0.177 -0.014 -0.198 0.11 -0.06 0.227 0.25 0.44 0.512 0.64 0.786 0.309 0.422 0.35 0.397 0.123 -0.073a13.823 13.823 0 0 0 -0.508 -0.924c-0.643 -1.281 -1.338 -2.527 -1.997 -3.8 -0.573 -1.108 -1.197 -2.192 -1.73 -3.305a0.184 0.184 0 0 1 -0.019 -0.065l-0.006 -0.059c0.116 -0.12 0.236 -0.283 0.358 -0.488 0.119 -0.199 0.381 -0.586 0.786 -1.162 0.107 -0.152 0.313 -0.39 0.457 -0.63 0.098 -0.165 0.295 -0.439 0.589 -0.821 1.077 -1.402 2.239 -2.795 3.184 -4.227a0.022 0.022 0 1 0 -0.036 -0.026l-0.427 0.52a0.043 0.043 0 0 1 -0.077 -0.024l-0.008 -0.13c-0.003 -0.052 -0.021 -0.058 -0.055 -0.019l-0.497 0.582h-0.033c0.008 -0.035 0.002 -0.072 0.02 -0.105 0.328 -0.605 0.672 -1.206 1.032 -1.8a0.044 0.044 0 0 0 -0.07 -0.054c-0.093 0.099 -0.182 0.21 -0.269 0.335 -0.058 0.083 -0.106 0.1 -0.144 0.05l0.573 -1.097a0.024 0.024 0 0 0 -0.04 -0.025l-1.1 1.567 -0.672 0.938c-0.013 0.018 -0.029 0.02 -0.047 0.01 -0.019 -0.011 -0.022 -0.027 -0.01 -0.049 0.317 -0.538 0.52 -0.892 0.609 -1.062 0.238 -0.349 0.454 -0.723 0.647 -1.124 0.117 -0.244 0.33 -0.514 0.429 -0.813a0.03 0.03 0 0 0 -0.05 -0.027l-0.604 0.773 0.392 -0.78c0.245 -0.457 0.513 -0.924 0.804 -1.4 0.204 -0.333 0.358 -0.658 0.518 -1 0.002 -0.004 0.001 -0.007 -0.001 -0.01a0.226 0.226 0 0 1 -0.015 -0.014c-0.012 -0.013 -0.022 -0.012 -0.03 0.003a24.15 24.15 0 0 1 -1.123 1.598 0.862 0.862 0 0 0 -0.14 0.27c-0.006 0.022 -0.017 0.024 -0.031 0.006a0.078 0.078 0 0 0 -0.014 -0.014c-0.02 -0.016 -0.023 -0.036 -0.012 -0.059 0.16 -0.319 0.298 -0.647 0.415 -0.984a0.306 0.306 0 0 0 0.021 -0.072c-0.01 -0.079 -0.043 -0.089 -0.097 -0.029l-0.448 0.491c-0.026 0.036 -0.029 0.021 -0.009 -0.044a0.124 0.124 0 0 1 0.02 -0.04c0.229 -0.335 0.416 -0.755 0.588 -1.05 0.221 -0.376 0.436 -0.755 0.646 -1.138a0.078 0.078 0 0 0 0.01 -0.045C17.81 0.009 17.806 0 17.801 0Z" fill="#000000" stroke-width="1"></path>
</svg>